solid OpenSCAD_Model
  facet normal -1 0 0
    outer loop
      vertex -9 -13 41
      vertex -9 -19 45
      vertex -9 5.42342e-31 45
    endloop
  endfacet
  facet normal -1 0 0
    outer loop
      vertex -9 -19 2.44249e-15
      vertex -9 -19 45
      vertex -9 -15.3759 10.4599
    endloop
  endfacet
  facet normal -1 0 0
    outer loop
      vertex -9 -19 2.44249e-15
      vertex -9 -15.3759 10.4599
      vertex -9 -15.3759 9.54008
    endloop
  endfacet
  facet normal -1 0 0
    outer loop
      vertex -9 -19 2.44249e-15
      vertex -9 -15.3759 9.54008
      vertex -9 -15.1846 8.64033
    endloop
  endfacet
  facet normal -1 0 0
    outer loop
      vertex -9 -19 2.44249e-15
      vertex -9 -15.1846 8.64033
      vertex -9 -14.8105 7.8
    endloop
  endfacet
  facet normal -1 0 0
    outer loop
      vertex -9 -19 2.44249e-15
      vertex -9 -14.8105 7.8
      vertex -9 -14.2698 7.05583
    endloop
  endfacet
  facet normal -1 0 0
    outer loop
      vertex -9 -19 2.44249e-15
      vertex -9 -14.2698 7.05583
      vertex -9 -13.5863 6.44033
    endloop
  endfacet
  facet normal -1 0 0
    outer loop
      vertex -9 -19 2.44249e-15
      vertex -9 -13.5863 6.44033
      vertex -9 -12.7896 5.9804
    endloop
  endfacet
  facet normal -1 0 0
    outer loop
      vertex -9 -19 2.44249e-15
      vertex -9 -12.7896 5.9804
      vertex -9 5.42342e-31 2.44249e-15
    endloop
  endfacet
  facet normal -1 0 0
    outer loop
      vertex -9 -11 5.6
      vertex -9 5.42342e-31 2.44249e-15
      vertex -9 -11.9148 5.69615
    endloop
  endfacet
  facet normal -1 0 0
    outer loop
      vertex -9 -10.0852 5.69615
      vertex -9 5.42342e-31 2.44249e-15
      vertex -9 -11 5.6
    endloop
  endfacet
  facet normal -1 0 0
    outer loop
      vertex -9 -9.21036 5.9804
      vertex -9 5.42342e-31 2.44249e-15
      vertex -9 -10.0852 5.69615
    endloop
  endfacet
  facet normal -1 0 0
    outer loop
      vertex -9 -8.41374 6.44033
      vertex -9 5.42342e-31 2.44249e-15
      vertex -9 -9.21036 5.9804
    endloop
  endfacet
  facet normal -1 0 0
    outer loop
      vertex -9 -13.5863 26.4403
      vertex -9 -10.0852 14.3038
      vertex -9 -11 14.4
    endloop
  endfacet
  facet normal -1 0 0
    outer loop
      vertex -9 -11.9148 25.6962
      vertex -9 -8.41374 13.5597
      vertex -9 -12.7896 25.9804
    endloop
  endfacet
  facet normal -1 0 0
    outer loop
      vertex -9 -8.41374 6.44033
      vertex -9 -7.73016 7.05583
      vertex -9 5.42342e-31 2.44249e-15
    endloop
  endfacet
  facet normal -1 0 0
    outer loop
      vertex -9 -11.9148 25.6962
      vertex -9 -7.18949 12.2
      vertex -9 -7.73016 12.9442
    endloop
  endfacet
  facet normal -1 0 0
    outer loop
      vertex -9 -7.73016 7.05583
      vertex -9 -7.18949 7.8
      vertex -9 5.42342e-31 2.44249e-15
    endloop
  endfacet
  facet normal -1 0 0
    outer loop
      vertex -9 -15.1846 31.3597
      vertex -9 -19 45
      vertex -9 -14.8105 32.2
    endloop
  endfacet
  facet normal -1 0 0
    outer loop
      vertex -9 -7.18949 7.8
      vertex -9 -6.81535 8.64033
      vertex -9 5.42342e-31 2.44249e-15
    endloop
  endfacet
  facet normal -1 0 0
    outer loop
      vertex -9 -11.9148 25.6962
      vertex -9 -6.81535 11.3597
      vertex -9 -7.18949 12.2
    endloop
  endfacet
  facet normal -1 0 0
    outer loop
      vertex -9 -6.81535 8.64033
      vertex -9 -6.6241 9.54008
      vertex -9 5.42342e-31 2.44249e-15
    endloop
  endfacet
  facet normal -1 0 0
    outer loop
      vertex -9 -6.6241 9.54008
      vertex -9 -6.6241 10.4599
      vertex -9 5.42342e-31 2.44249e-15
    endloop
  endfacet
  facet normal -1 0 0
    outer loop
      vertex -9 -6.6241 10.4599
      vertex -9 -6.81535 11.3597
      vertex -9 5.42342e-31 2.44249e-15
    endloop
  endfacet
  facet normal -1 0 0
    outer loop
      vertex -9 -11.9148 25.6962
      vertex -9 -7.73016 12.9442
      vertex -9 -8.41374 13.5597
    endloop
  endfacet
  facet normal -1 0 0
    outer loop
      vertex -9 -14.8105 27.8
      vertex -9 -11.9148 14.3038
      vertex -9 -15.1846 28.6403
    endloop
  endfacet
  facet normal -1 0 0
    outer loop
      vertex -9 -12.7896 14.0196
      vertex -9 -19 45
      vertex -9 -11.9148 14.3038
    endloop
  endfacet
  facet normal -1 0 0
    outer loop
      vertex -9 -13.5863 13.5597
      vertex -9 -19 45
      vertex -9 -12.7896 14.0196
    endloop
  endfacet
  facet normal -1 0 0
    outer loop
      vertex -9 -14.2698 12.9442
      vertex -9 -19 45
      vertex -9 -13.5863 13.5597
    endloop
  endfacet
  facet normal -1 0 0
    outer loop
      vertex -9 -14.8105 12.2
      vertex -9 -19 45
      vertex -9 -14.2698 12.9442
    endloop
  endfacet
  facet normal -1 0 0
    outer loop
      vertex -9 -15.1846 11.3597
      vertex -9 -19 45
      vertex -9 -14.8105 12.2
    endloop
  endfacet
  facet normal -1 0 0
    outer loop
      vertex -9 -15.3759 10.4599
      vertex -9 -19 45
      vertex -9 -15.1846 11.3597
    endloop
  endfacet
  facet normal -1 0 0
    outer loop
      vertex -9 -15.3759 29.5401
      vertex -9 -19 45
      vertex -9 -15.3759 30.4599
    endloop
  endfacet
  facet normal -1 0 0
    outer loop
      vertex -9 -13.5863 26.4403
      vertex -9 -11 14.4
      vertex -9 -14.2698 27.0558
    endloop
  endfacet
  facet normal -1 0 0
    outer loop
      vertex -9 -15.1846 28.6403
      vertex -9 -19 45
      vertex -9 -15.3759 29.5401
    endloop
  endfacet
  facet normal -1 0 0
    outer loop
      vertex -9 -11.9148 14.3038
      vertex -9 -19 45
      vertex -9 -15.1846 28.6403
    endloop
  endfacet
  facet normal -1 0 0
    outer loop
      vertex -9 -14.2698 27.0558
      vertex -9 -11.9148 14.3038
      vertex -9 -14.8105 27.8
    endloop
  endfacet
  facet normal -1 0 0
    outer loop
      vertex -9 -14.2698 27.0558
      vertex -9 -11 14.4
      vertex -9 -11.9148 14.3038
    endloop
  endfacet
  facet normal -1 0 0
    outer loop
      vertex -9 -9.5 39
      vertex -9 -7.73016 32.9442
      vertex -9 -13 39
    endloop
  endfacet
  facet normal -1 0 0
    outer loop
      vertex -9 -15.3759 30.4599
      vertex -9 -19 45
      vertex -9 -15.1846 31.3597
    endloop
  endfacet
  facet normal -1 0 0
    outer loop
      vertex -9 -12.7896 25.9804
      vertex -9 -9.21036 14.0196
      vertex -9 -13.5863 26.4403
    endloop
  endfacet
  facet normal -1 0 0
    outer loop
      vertex -9 -10.0852 14.3038
      vertex -9 -13.5863 26.4403
      vertex -9 -9.21036 14.0196
    endloop
  endfacet
  facet normal -1 0 0
    outer loop
      vertex -9 -10.0852 25.6962
      vertex -9 5.42342e-31 2.44249e-15
      vertex -9 -11 25.6
    endloop
  endfacet
  facet normal -1 0 0
    outer loop
      vertex -9 -6.81535 11.3597
      vertex -9 -11.9148 25.6962
      vertex -9 5.42342e-31 2.44249e-15
    endloop
  endfacet
  facet normal -1 0 0
    outer loop
      vertex -9 -14.8105 32.2
      vertex -9 -19 45
      vertex -9 -14.2698 32.9442
    endloop
  endfacet
  facet normal -1 0 0
    outer loop
      vertex -9 -11.9148 25.6962
      vertex -9 -11 25.6
      vertex -9 5.42342e-31 2.44249e-15
    endloop
  endfacet
  facet normal -1 0 0
    outer loop
      vertex -9 -6.6241 29.5401
      vertex -9 5.42342e-31 45
      vertex -9 -6.81535 28.6403
    endloop
  endfacet
  facet normal -1 0 0
    outer loop
      vertex -9 5.42342e-31 2.44249e-15
      vertex -9 -10.0852 25.6962
      vertex -9 -9.21036 25.9804
    endloop
  endfacet
  facet normal -1 0 0
    outer loop
      vertex -9 5.42342e-31 2.44249e-15
      vertex -9 -9.21036 25.9804
      vertex -9 -8.41374 26.4403
    endloop
  endfacet
  facet normal -1 0 0
    outer loop
      vertex -9 5.42342e-31 2.44249e-15
      vertex -9 -8.41374 26.4403
      vertex -9 -7.73016 27.0558
    endloop
  endfacet
  facet normal -1 0 0
    outer loop
      vertex -9 5.42342e-31 2.44249e-15
      vertex -9 -7.73016 27.0558
      vertex -9 -7.18949 27.8
    endloop
  endfacet
  facet normal -1 0 0
    outer loop
      vertex -9 5.42342e-31 2.44249e-15
      vertex -9 -7.18949 27.8
      vertex -9 -6.81535 28.6403
    endloop
  endfacet
  facet normal -1 0 0
    outer loop
      vertex -9 5.42342e-31 2.44249e-15
      vertex -9 -6.81535 28.6403
      vertex -9 5.42342e-31 45
    endloop
  endfacet
  facet normal -1 0 0
    outer loop
      vertex -9 -6.6241 30.4599
      vertex -9 5.42342e-31 45
      vertex -9 -6.6241 29.5401
    endloop
  endfacet
  facet normal -1 0 0
    outer loop
      vertex -9 -6.81535 31.3597
      vertex -9 5.42342e-31 45
      vertex -9 -6.6241 30.4599
    endloop
  endfacet
  facet normal -1 0 0
    outer loop
      vertex -9 -7.18949 32.2
      vertex -9 5.42342e-31 45
      vertex -9 -6.81535 31.3597
    endloop
  endfacet
  facet normal -1 0 0
    outer loop
      vertex -9 -14.2698 32.9442
      vertex -9 -19 45
      vertex -9 -13.5863 33.5597
    endloop
  endfacet
  facet normal -1 0 0
    outer loop
      vertex -9 -9.21036 34.0196
      vertex -9 -19 45
      vertex -9 -8.41374 33.5597
    endloop
  endfacet
  facet normal -1 0 0
    outer loop
      vertex -9 -8.41374 33.5597
      vertex -9 -19 45
      vertex -9 -7.73016 32.9442
    endloop
  endfacet
  facet normal -1 0 0
    outer loop
      vertex -9 -7.18949 32.2
      vertex -9 -7.73016 32.9442
      vertex -9 5.42342e-31 45
    endloop
  endfacet
  facet normal -1 0 0
    outer loop
      vertex -9 -10.0852 34.3038
      vertex -9 -19 45
      vertex -9 -9.21036 34.0196
    endloop
  endfacet
  facet normal -1 0 0
    outer loop
      vertex -9 -11 34.4
      vertex -9 -19 45
      vertex -9 -10.0852 34.3038
    endloop
  endfacet
  facet normal -1 0 0
    outer loop
      vertex -9 -11.9148 34.3038
      vertex -9 -19 45
      vertex -9 -11 34.4
    endloop
  endfacet
  facet normal -1 0 0
    outer loop
      vertex -9 -12.7896 34.0196
      vertex -9 -19 45
      vertex -9 -11.9148 34.3038
    endloop
  endfacet
  facet normal -1 0 0
    outer loop
      vertex -9 -13.5863 33.5597
      vertex -9 -19 45
      vertex -9 -12.7896 34.0196
    endloop
  endfacet
  facet normal -1 0 0
    outer loop
      vertex -9 -13 39
      vertex -9 -19 45
      vertex -9 -13 41
    endloop
  endfacet
  facet normal -1 0 0
    outer loop
      vertex -9 -9.5 41
      vertex -9 -13 41
      vertex -9 5.42342e-31 45
    endloop
  endfacet
  facet normal -1 0 0
    outer loop
      vertex -9 -7.73016 32.9442
      vertex -9 -19 45
      vertex -9 -13 39
    endloop
  endfacet
  facet normal -1 0 0
    outer loop
      vertex -9 -7.73016 32.9442
      vertex -9 -9.5 39
      vertex -9 5.42342e-31 45
    endloop
  endfacet
  facet normal -1 0 0
    outer loop
      vertex -9 -9.5 39
      vertex -9 -9.5 41
      vertex -9 5.42342e-31 45
    endloop
  endfacet
  facet normal -1 0 0
    outer loop
      vertex -9 -11.9148 5.69615
      vertex -9 5.42342e-31 2.44249e-15
      vertex -9 -12.7896 5.9804
    endloop
  endfacet
  facet normal -1 0 0
    outer loop
      vertex -9 -9.21036 14.0196
      vertex -9 -12.7896 25.9804
      vertex -9 -8.41374 13.5597
    endloop
  endfacet
  facet normal -0.707107 -0.707107 0
    outer loop
      vertex -6 -22 45
      vertex -7.5 -20.5 46.5
      vertex -6 -22 2.44249e-15
    endloop
  endfacet
  facet normal -0.707107 -0.707107 0
    outer loop
      vertex -6 -22 2.44249e-15
      vertex -7.5 -20.5 46.5
      vertex -9 -19 45
    endloop
  endfacet
  facet normal -0.707107 -0.707107 0
    outer loop
      vertex -6 -22 2.44249e-15
      vertex -9 -19 45
      vertex -9 -19 2.44249e-15
    endloop
  endfacet
  facet normal 0 0 -1
    outer loop
      vertex -9 -19 2.44249e-15
      vertex -9 5.42342e-31 2.44249e-15
      vertex -6 -22 2.44249e-15
    endloop
  endfacet
  facet normal 0 0 -1
    outer loop
      vertex -6 -22 2.44249e-15
      vertex -9 5.42342e-31 2.44249e-15
      vertex 9 5.42342e-31 2.44249e-15
    endloop
  endfacet
  facet normal 0 0 -1
    outer loop
      vertex -6 -22 2.44249e-15
      vertex 9 5.42342e-31 2.44249e-15
      vertex 9 -19 2.44249e-15
    endloop
  endfacet
  facet normal 0 0 -1
    outer loop
      vertex -6 -22 2.44249e-15
      vertex 9 -19 2.44249e-15
      vertex 6 -22 2.44249e-15
    endloop
  endfacet
  facet normal 0 1 0
    outer loop
      vertex 4.88498e-15 5.42342e-31 24.4
      vertex -9 5.42342e-31 45
      vertex -7 5.42342e-31 47
    endloop
  endfacet
  facet normal 0 1 0
    outer loop
      vertex -3.99444 5.42342e-31 46.2979
      vertex -7 5.42342e-31 47
      vertex -3.68183 5.42342e-31 47
    endloop
  endfacet
  facet normal 0 1 0
    outer loop
      vertex -4.17699 5.42342e-31 45.439
      vertex -7 5.42342e-31 47
      vertex -3.99444 5.42342e-31 46.2979
    endloop
  endfacet
  facet normal 0 1 0
    outer loop
      vertex -4.17699 5.42342e-31 44.561
      vertex -7 5.42342e-31 47
      vertex -4.17699 5.42342e-31 45.439
    endloop
  endfacet
  facet normal 0 1 0
    outer loop
      vertex -3.99444 5.42342e-31 43.7021
      vertex -7 5.42342e-31 47
      vertex -4.17699 5.42342e-31 44.561
    endloop
  endfacet
  facet normal 0 1 0
    outer loop
      vertex 0.914811 5.42342e-31 24.3038
      vertex -7 5.42342e-31 47
      vertex -3.99444 5.42342e-31 43.7021
    endloop
  endfacet
  facet normal 0 1 0
    outer loop
      vertex -1.70829 5.42342e-31 41.1631
      vertex 2.58626 5.42342e-31 23.5597
      vertex -2.4687 5.42342e-31 41.6021
    endloop
  endfacet
  facet normal 0 1 0
    outer loop
      vertex 2.58626 5.42342e-31 23.5597
      vertex -1.70829 5.42342e-31 41.1631
      vertex -0.873229 5.42342e-31 40.8918
    endloop
  endfacet
  facet normal 0 1 0
    outer loop
      vertex -2.58625 5.42342e-31 16.4403
      vertex 9 5.42342e-31 2.44249e-15
      vertex -3.26984 5.42342e-31 17.0558
    endloop
  endfacet
  facet normal 0 1 0
    outer loop
      vertex 1.78964 5.42342e-31 24.0196
      vertex -3.12121 5.42342e-31 42.1897
      vertex -2.4687 5.42342e-31 41.6021
    endloop
  endfacet
  facet normal 0 1 0
    outer loop
      vertex 4.18465 5.42342e-31 21.3597
      vertex 4.44089e-15 5.42342e-31 40.8
      vertex 9 5.42342e-31 2.44249e-15
    endloop
  endfacet
  facet normal 0 1 0
    outer loop
      vertex 4.44089e-15 5.42342e-31 40.8
      vertex 0.873229 5.42342e-31 40.8918
      vertex 9 5.42342e-31 2.44249e-15
    endloop
  endfacet
  facet normal 0 1 0
    outer loop
      vertex 0.873229 5.42342e-31 40.8918
      vertex 1.70829 5.42342e-31 41.1631
      vertex 9 5.42342e-31 2.44249e-15
    endloop
  endfacet
  facet normal 0 1 0
    outer loop
      vertex 1.70829 5.42342e-31 41.1631
      vertex 2.4687 5.42342e-31 41.6021
      vertex 9 5.42342e-31 2.44249e-15
    endloop
  endfacet
  facet normal 0 1 0
    outer loop
      vertex 2.4687 5.42342e-31 41.6021
      vertex 3.12121 5.42342e-31 42.1897
      vertex 9 5.42342e-31 2.44249e-15
    endloop
  endfacet
  facet normal 0 1 0
    outer loop
      vertex 3.12121 5.42342e-31 42.1897
      vertex 3.63731 5.42342e-31 42.9
      vertex 9 5.42342e-31 2.44249e-15
    endloop
  endfacet
  facet normal 0 1 0
    outer loop
      vertex 3.63731 5.42342e-31 42.9
      vertex 3.99444 5.42342e-31 43.7021
      vertex 9 5.42342e-31 2.44249e-15
    endloop
  endfacet
  facet normal 0 1 0
    outer loop
      vertex 3.99444 5.42342e-31 43.7021
      vertex 4.17699 5.42342e-31 44.561
      vertex 9 5.42342e-31 2.44249e-15
    endloop
  endfacet
  facet normal 0 1 0
    outer loop
      vertex 4.17699 5.42342e-31 44.561
      vertex 4.17699 5.42342e-31 45.439
      vertex 9 5.42342e-31 2.44249e-15
    endloop
  endfacet
  facet normal 0 1 0
    outer loop
      vertex 4.17699 5.42342e-31 45.439
      vertex 7 5.42342e-31 47
      vertex 9 5.42342e-31 2.44249e-15
    endloop
  endfacet
  facet normal 0 1 0
    outer loop
      vertex 3.99444 5.42342e-31 46.2979
      vertex 3.68183 5.42342e-31 47
      vertex 7 5.42342e-31 47
    endloop
  endfacet
  facet normal 0 1 0
    outer loop
      vertex 3.99444 5.42342e-31 46.2979
      vertex 7 5.42342e-31 47
      vertex 4.17699 5.42342e-31 45.439
    endloop
  endfacet
  facet normal 0 1 0
    outer loop
      vertex 9 5.42342e-31 2.44249e-15
      vertex 7 5.42342e-31 47
      vertex 9 5.42342e-31 45
    endloop
  endfacet
  facet normal 0 1 0
    outer loop
      vertex -9 5.42342e-31 2.44249e-15
      vertex -9 5.42342e-31 45
      vertex -4.3759 5.42342e-31 20.4599
    endloop
  endfacet
  facet normal 0 1 0
    outer loop
      vertex -1.78964 5.42342e-31 24.0196
      vertex -9 5.42342e-31 45
      vertex -0.914811 5.42342e-31 24.3038
    endloop
  endfacet
  facet normal 0 1 0
    outer loop
      vertex -9 5.42342e-31 2.44249e-15
      vertex -4.3759 5.42342e-31 20.4599
      vertex -4.3759 5.42342e-31 19.5401
    endloop
  endfacet
  facet normal 0 1 0
    outer loop
      vertex -9 5.42342e-31 2.44249e-15
      vertex -4.3759 5.42342e-31 19.5401
      vertex -4.18465 5.42342e-31 18.6403
    endloop
  endfacet
  facet normal 0 1 0
    outer loop
      vertex -9 5.42342e-31 2.44249e-15
      vertex -4.18465 5.42342e-31 18.6403
      vertex -3.81051 5.42342e-31 17.8
    endloop
  endfacet
  facet normal 0 1 0
    outer loop
      vertex -9 5.42342e-31 2.44249e-15
      vertex -3.81051 5.42342e-31 17.8
      vertex 9 5.42342e-31 2.44249e-15
    endloop
  endfacet
  facet normal 0 1 0
    outer loop
      vertex -3.81051 5.42342e-31 17.8
      vertex -3.26984 5.42342e-31 17.0558
      vertex 9 5.42342e-31 2.44249e-15
    endloop
  endfacet
  facet normal 0 1 0
    outer loop
      vertex -1.78964 5.42342e-31 15.9804
      vertex 9 5.42342e-31 2.44249e-15
      vertex -2.58625 5.42342e-31 16.4403
    endloop
  endfacet
  facet normal 0 1 0
    outer loop
      vertex -0.914811 5.42342e-31 15.6962
      vertex 9 5.42342e-31 2.44249e-15
      vertex -1.78964 5.42342e-31 15.9804
    endloop
  endfacet
  facet normal 0 1 0
    outer loop
      vertex 2.58626 5.42342e-31 16.4403
      vertex 9 5.42342e-31 2.44249e-15
      vertex 1.78964 5.42342e-31 15.9804
    endloop
  endfacet
  facet normal 0 1 0
    outer loop
      vertex -3.26984 5.42342e-31 22.9442
      vertex -9 5.42342e-31 45
      vertex -2.58625 5.42342e-31 23.5597
    endloop
  endfacet
  facet normal 0 1 0
    outer loop
      vertex -0.914811 5.42342e-31 15.6962
      vertex 4.88498e-15 5.42342e-31 15.6
      vertex 9 5.42342e-31 2.44249e-15
    endloop
  endfacet
  facet normal 0 1 0
    outer loop
      vertex 4.88498e-15 5.42342e-31 15.6
      vertex 0.914811 5.42342e-31 15.6962
      vertex 9 5.42342e-31 2.44249e-15
    endloop
  endfacet
  facet normal 0 1 0
    outer loop
      vertex -2.58625 5.42342e-31 23.5597
      vertex -9 5.42342e-31 45
      vertex -1.78964 5.42342e-31 24.0196
    endloop
  endfacet
  facet normal 0 1 0
    outer loop
      vertex 0.914811 5.42342e-31 15.6962
      vertex 1.78964 5.42342e-31 15.9804
      vertex 9 5.42342e-31 2.44249e-15
    endloop
  endfacet
  facet normal 0 1 0
    outer loop
      vertex 3.26984 5.42342e-31 17.0558
      vertex 9 5.42342e-31 2.44249e-15
      vertex 2.58626 5.42342e-31 16.4403
    endloop
  endfacet
  facet normal 0 1 0
    outer loop
      vertex 1.78964 5.42342e-31 24.0196
      vertex -3.99444 5.42342e-31 43.7021
      vertex -3.63731 5.42342e-31 42.9
    endloop
  endfacet
  facet normal 0 1 0
    outer loop
      vertex 3.81051 5.42342e-31 17.8
      vertex 9 5.42342e-31 2.44249e-15
      vertex 3.26984 5.42342e-31 17.0558
    endloop
  endfacet
  facet normal 0 1 0
    outer loop
      vertex 4.18465 5.42342e-31 18.6403
      vertex 9 5.42342e-31 2.44249e-15
      vertex 3.81051 5.42342e-31 17.8
    endloop
  endfacet
  facet normal 0 1 0
    outer loop
      vertex 4.3759 5.42342e-31 19.5401
      vertex 9 5.42342e-31 2.44249e-15
      vertex 4.18465 5.42342e-31 18.6403
    endloop
  endfacet
  facet normal 0 1 0
    outer loop
      vertex 1.78964 5.42342e-31 24.0196
      vertex -2.4687 5.42342e-31 41.6021
      vertex 2.58626 5.42342e-31 23.5597
    endloop
  endfacet
  facet normal 0 1 0
    outer loop
      vertex 3.26984 5.42342e-31 22.9442
      vertex -0.873229 5.42342e-31 40.8918
      vertex 3.81051 5.42342e-31 22.2
    endloop
  endfacet
  facet normal 0 1 0
    outer loop
      vertex 3.81051 5.42342e-31 22.2
      vertex 4.44089e-15 5.42342e-31 40.8
      vertex 4.18465 5.42342e-31 21.3597
    endloop
  endfacet
  facet normal 0 1 0
    outer loop
      vertex 4.3759 5.42342e-31 19.5401
      vertex 4.3759 5.42342e-31 20.4599
      vertex 9 5.42342e-31 2.44249e-15
    endloop
  endfacet
  facet normal 0 1 0
    outer loop
      vertex 4.3759 5.42342e-31 20.4599
      vertex 4.18465 5.42342e-31 21.3597
      vertex 9 5.42342e-31 2.44249e-15
    endloop
  endfacet
  facet normal 0 1 0
    outer loop
      vertex -0.873229 5.42342e-31 40.8918
      vertex 4.44089e-15 5.42342e-31 40.8
      vertex 3.81051 5.42342e-31 22.2
    endloop
  endfacet
  facet normal 0 1 0
    outer loop
      vertex 2.58626 5.42342e-31 23.5597
      vertex -0.873229 5.42342e-31 40.8918
      vertex 3.26984 5.42342e-31 22.9442
    endloop
  endfacet
  facet normal 0 1 0
    outer loop
      vertex 1.78964 5.42342e-31 24.0196
      vertex -3.63731 5.42342e-31 42.9
      vertex -3.12121 5.42342e-31 42.1897
    endloop
  endfacet
  facet normal 0 1 0
    outer loop
      vertex 4.88498e-15 5.42342e-31 24.4
      vertex -7 5.42342e-31 47
      vertex 0.914811 5.42342e-31 24.3038
    endloop
  endfacet
  facet normal 0 1 0
    outer loop
      vertex -0.914811 5.42342e-31 24.3038
      vertex -9 5.42342e-31 45
      vertex 4.88498e-15 5.42342e-31 24.4
    endloop
  endfacet
  facet normal 0 1 0
    outer loop
      vertex 0.914811 5.42342e-31 24.3038
      vertex -3.99444 5.42342e-31 43.7021
      vertex 1.78964 5.42342e-31 24.0196
    endloop
  endfacet
  facet normal 0 1 0
    outer loop
      vertex -3.81051 5.42342e-31 22.2
      vertex -9 5.42342e-31 45
      vertex -3.26984 5.42342e-31 22.9442
    endloop
  endfacet
  facet normal 0 1 0
    outer loop
      vertex -4.18465 5.42342e-31 21.3597
      vertex -9 5.42342e-31 45
      vertex -3.81051 5.42342e-31 22.2
    endloop
  endfacet
  facet normal 0 1 0
    outer loop
      vertex -4.3759 5.42342e-31 20.4599
      vertex -9 5.42342e-31 45
      vertex -4.18465 5.42342e-31 21.3597
    endloop
  endfacet
  facet normal -0.707107 0 0.707107
    outer loop
      vertex -7 -20 47
      vertex -7 5.42342e-31 47
      vertex -7.5 -20.5 46.5
    endloop
  endfacet
  facet normal -0.707107 0 0.707107
    outer loop
      vertex -7.5 -20.5 46.5
      vertex -7 5.42342e-31 47
      vertex -9 5.42342e-31 45
    endloop
  endfacet
  facet normal -0.707107 0 0.707107
    outer loop
      vertex -7.5 -20.5 46.5
      vertex -9 5.42342e-31 45
      vertex -9 -19 45
    endloop
  endfacet
  facet normal 4.61655e-17 0.978148 -0.207911
    outer loop
      vertex 9 -15.1846 11.3597
      vertex 9 -15.3759 10.4599
      vertex -9 -15.1846 11.3597
    endloop
  endfacet
  facet normal 4.61655e-17 0.978148 -0.207911
    outer loop
      vertex -9 -15.1846 11.3597
      vertex 9 -15.3759 10.4599
      vertex -9 -15.3759 10.4599
    endloop
  endfacet
  facet normal 0 1 0
    outer loop
      vertex 9 -15.3759 10.4599
      vertex 9 -15.3759 9.54008
      vertex -9 -15.3759 10.4599
    endloop
  endfacet
  facet normal 0 1 0
    outer loop
      vertex -9 -15.3759 10.4599
      vertex 9 -15.3759 9.54008
      vertex -9 -15.3759 9.54008
    endloop
  endfacet
  facet normal 9.03137e-17 0.913545 -0.406737
    outer loop
      vertex 9 -14.8105 12.2
      vertex 9 -15.1846 11.3597
      vertex -9 -14.8105 12.2
    endloop
  endfacet
  facet normal 9.03137e-17 0.913545 -0.406737
    outer loop
      vertex -9 -14.8105 12.2
      vertex 9 -15.1846 11.3597
      vertex -9 -15.1846 11.3597
    endloop
  endfacet
  facet normal 1.30515e-16 0.809017 -0.587785
    outer loop
      vertex 9 -14.2698 12.9442
      vertex 9 -14.8105 12.2
      vertex -9 -14.2698 12.9442
    endloop
  endfacet
  facet normal 1.30515e-16 0.809017 -0.587785
    outer loop
      vertex -9 -14.2698 12.9442
      vertex 9 -14.8105 12.2
      vertex -9 -14.8105 12.2
    endloop
  endfacet
  facet normal 1.65011e-16 0.669131 -0.743145
    outer loop
      vertex 9 -13.5863 13.5597
      vertex 9 -14.2698 12.9442
      vertex -9 -13.5863 13.5597
    endloop
  endfacet
  facet normal 1.65011e-16 0.669131 -0.743145
    outer loop
      vertex -9 -13.5863 13.5597
      vertex 9 -14.2698 12.9442
      vertex -9 -14.2698 12.9442
    endloop
  endfacet
  facet normal 1.92296e-16 0.5 -0.866026
    outer loop
      vertex 9 -12.7896 14.0196
      vertex 9 -13.5863 13.5597
      vertex -9 -12.7896 14.0196
    endloop
  endfacet
  facet normal 1.92296e-16 0.5 -0.866026
    outer loop
      vertex -9 -12.7896 14.0196
      vertex 9 -13.5863 13.5597
      vertex -9 -13.5863 13.5597
    endloop
  endfacet
  facet normal 2.11177e-16 0.309017 -0.951057
    outer loop
      vertex 9 -11.9148 14.3038
      vertex 9 -12.7896 14.0196
      vertex -9 -11.9148 14.3038
    endloop
  endfacet
  facet normal 2.11177e-16 0.309017 -0.951057
    outer loop
      vertex -9 -11.9148 14.3038
      vertex 9 -12.7896 14.0196
      vertex -9 -12.7896 14.0196
    endloop
  endfacet
  facet normal 2.20828e-16 0.104529 -0.994522
    outer loop
      vertex 9 -11 14.4
      vertex 9 -11.9148 14.3038
      vertex -9 -11 14.4
    endloop
  endfacet
  facet normal 2.20828e-16 0.104529 -0.994522
    outer loop
      vertex -9 -11 14.4
      vertex 9 -11.9148 14.3038
      vertex -9 -11.9148 14.3038
    endloop
  endfacet
  facet normal 2.20828e-16 -0.104529 -0.994522
    outer loop
      vertex 9 -10.0852 14.3038
      vertex 9 -11 14.4
      vertex -9 -10.0852 14.3038
    endloop
  endfacet
  facet normal 2.20828e-16 -0.104529 -0.994522
    outer loop
      vertex -9 -10.0852 14.3038
      vertex 9 -11 14.4
      vertex -9 -11 14.4
    endloop
  endfacet
  facet normal 2.11177e-16 -0.309017 -0.951057
    outer loop
      vertex 9 -9.21036 14.0196
      vertex 9 -10.0852 14.3038
      vertex -9 -9.21036 14.0196
    endloop
  endfacet
  facet normal 2.11177e-16 -0.309017 -0.951057
    outer loop
      vertex -9 -9.21036 14.0196
      vertex 9 -10.0852 14.3038
      vertex -9 -10.0852 14.3038
    endloop
  endfacet
  facet normal 1.92296e-16 -0.5 -0.866026
    outer loop
      vertex 9 -8.41374 13.5597
      vertex 9 -9.21036 14.0196
      vertex -9 -8.41374 13.5597
    endloop
  endfacet
  facet normal 1.92296e-16 -0.5 -0.866026
    outer loop
      vertex -9 -8.41374 13.5597
      vertex 9 -9.21036 14.0196
      vertex -9 -9.21036 14.0196
    endloop
  endfacet
  facet normal 1.65011e-16 -0.669131 -0.743145
    outer loop
      vertex 9 -7.73016 12.9442
      vertex 9 -8.41374 13.5597
      vertex -9 -7.73016 12.9442
    endloop
  endfacet
  facet normal 1.65011e-16 -0.669131 -0.743145
    outer loop
      vertex -9 -7.73016 12.9442
      vertex 9 -8.41374 13.5597
      vertex -9 -8.41374 13.5597
    endloop
  endfacet
  facet normal 1.30515e-16 -0.809017 -0.587785
    outer loop
      vertex -9 -7.18949 12.2
      vertex 9 -7.18949 12.2
      vertex 9 -7.73016 12.9442
    endloop
  endfacet
  facet normal 1.30515e-16 -0.809017 -0.587785
    outer loop
      vertex -9 -7.73016 12.9442
      vertex -9 -7.18949 12.2
      vertex 9 -7.73016 12.9442
    endloop
  endfacet
  facet normal 9.03137e-17 -0.913545 -0.406737
    outer loop
      vertex -9 -6.81535 11.3597
      vertex 9 -6.81535 11.3597
      vertex 9 -7.18949 12.2
    endloop
  endfacet
  facet normal 9.03137e-17 -0.913545 -0.406737
    outer loop
      vertex -9 -7.18949 12.2
      vertex -9 -6.81535 11.3597
      vertex 9 -7.18949 12.2
    endloop
  endfacet
  facet normal 4.61655e-17 -0.978148 -0.207911
    outer loop
      vertex -9 -6.6241 10.4599
      vertex 9 -6.6241 10.4599
      vertex 9 -6.81535 11.3597
    endloop
  endfacet
  facet normal 4.61655e-17 -0.978148 -0.207911
    outer loop
      vertex -9 -6.81535 11.3597
      vertex -9 -6.6241 10.4599
      vertex 9 -6.81535 11.3597
    endloop
  endfacet
  facet normal 0 -1 0
    outer loop
      vertex 9 -6.6241 9.54008
      vertex 9 -6.6241 10.4599
      vertex -9 -6.6241 10.4599
    endloop
  endfacet
  facet normal 0 -1 0
    outer loop
      vertex -9 -6.6241 9.54008
      vertex 9 -6.6241 9.54008
      vertex -9 -6.6241 10.4599
    endloop
  endfacet
  facet normal -4.61655e-17 -0.978148 0.207911
    outer loop
      vertex 9 -6.81535 8.64033
      vertex 9 -6.6241 9.54008
      vertex -9 -6.6241 9.54008
    endloop
  endfacet
  facet normal -4.61655e-17 -0.978148 0.207911
    outer loop
      vertex -9 -6.81535 8.64033
      vertex 9 -6.81535 8.64033
      vertex -9 -6.6241 9.54008
    endloop
  endfacet
  facet normal -9.03137e-17 -0.913545 0.406737
    outer loop
      vertex 9 -7.18949 7.8
      vertex 9 -6.81535 8.64033
      vertex -9 -6.81535 8.64033
    endloop
  endfacet
  facet normal -9.03137e-17 -0.913545 0.406737
    outer loop
      vertex -9 -7.18949 7.8
      vertex 9 -7.18949 7.8
      vertex -9 -6.81535 8.64033
    endloop
  endfacet
  facet normal -1.30515e-16 -0.809017 0.587785
    outer loop
      vertex 9 -7.73016 7.05583
      vertex 9 -7.18949 7.8
      vertex -9 -7.18949 7.8
    endloop
  endfacet
  facet normal -1.30515e-16 -0.809017 0.587785
    outer loop
      vertex -9 -7.73016 7.05583
      vertex 9 -7.73016 7.05583
      vertex -9 -7.18949 7.8
    endloop
  endfacet
  facet normal -1.65011e-16 -0.669131 0.743145
    outer loop
      vertex 9 -8.41374 6.44033
      vertex 9 -7.73016 7.05583
      vertex -9 -7.73016 7.05583
    endloop
  endfacet
  facet normal -1.65011e-16 -0.669131 0.743145
    outer loop
      vertex -9 -8.41374 6.44033
      vertex 9 -8.41374 6.44033
      vertex -9 -7.73016 7.05583
    endloop
  endfacet
  facet normal -1.92296e-16 -0.5 0.866026
    outer loop
      vertex 9 -9.21036 5.9804
      vertex 9 -8.41374 6.44033
      vertex -9 -8.41374 6.44033
    endloop
  endfacet
  facet normal -1.92296e-16 -0.5 0.866026
    outer loop
      vertex -9 -9.21036 5.9804
      vertex 9 -9.21036 5.9804
      vertex -9 -8.41374 6.44033
    endloop
  endfacet
  facet normal -2.11177e-16 -0.309017 0.951057
    outer loop
      vertex 9 -10.0852 5.69615
      vertex 9 -9.21036 5.9804
      vertex -9 -9.21036 5.9804
    endloop
  endfacet
  facet normal -2.11177e-16 -0.309017 0.951057
    outer loop
      vertex -9 -10.0852 5.69615
      vertex 9 -10.0852 5.69615
      vertex -9 -9.21036 5.9804
    endloop
  endfacet
  facet normal -2.20828e-16 -0.104529 0.994522
    outer loop
      vertex 9 -11 5.6
      vertex 9 -10.0852 5.69615
      vertex -9 -10.0852 5.69615
    endloop
  endfacet
  facet normal -2.20828e-16 -0.104529 0.994522
    outer loop
      vertex -9 -11 5.6
      vertex 9 -11 5.6
      vertex -9 -10.0852 5.69615
    endloop
  endfacet
  facet normal -2.20828e-16 0.104529 0.994522
    outer loop
      vertex 9 -11.9148 5.69615
      vertex 9 -11 5.6
      vertex -9 -11 5.6
    endloop
  endfacet
  facet normal -2.20828e-16 0.104529 0.994522
    outer loop
      vertex -9 -11.9148 5.69615
      vertex 9 -11.9148 5.69615
      vertex -9 -11 5.6
    endloop
  endfacet
  facet normal -2.11177e-16 0.309017 0.951057
    outer loop
      vertex 9 -12.7896 5.9804
      vertex 9 -11.9148 5.69615
      vertex -9 -11.9148 5.69615
    endloop
  endfacet
  facet normal -2.11177e-16 0.309017 0.951057
    outer loop
      vertex -9 -12.7896 5.9804
      vertex 9 -12.7896 5.9804
      vertex -9 -11.9148 5.69615
    endloop
  endfacet
  facet normal -1.92296e-16 0.5 0.866026
    outer loop
      vertex 9 -13.5863 6.44033
      vertex 9 -12.7896 5.9804
      vertex -9 -12.7896 5.9804
    endloop
  endfacet
  facet normal -1.92296e-16 0.5 0.866026
    outer loop
      vertex -9 -13.5863 6.44033
      vertex 9 -13.5863 6.44033
      vertex -9 -12.7896 5.9804
    endloop
  endfacet
  facet normal -1.65011e-16 0.669131 0.743145
    outer loop
      vertex 9 -14.2698 7.05583
      vertex 9 -13.5863 6.44033
      vertex -9 -13.5863 6.44033
    endloop
  endfacet
  facet normal -1.65011e-16 0.669131 0.743145
    outer loop
      vertex -9 -14.2698 7.05583
      vertex 9 -14.2698 7.05583
      vertex -9 -13.5863 6.44033
    endloop
  endfacet
  facet normal -1.30515e-16 0.809017 0.587785
    outer loop
      vertex 9 -14.2698 7.05583
      vertex -9 -14.2698 7.05583
      vertex 9 -14.8105 7.8
    endloop
  endfacet
  facet normal -1.30515e-16 0.809017 0.587785
    outer loop
      vertex 9 -14.8105 7.8
      vertex -9 -14.2698 7.05583
      vertex -9 -14.8105 7.8
    endloop
  endfacet
  facet normal -9.03137e-17 0.913545 0.406737
    outer loop
      vertex 9 -14.8105 7.8
      vertex -9 -14.8105 7.8
      vertex 9 -15.1846 8.64033
    endloop
  endfacet
  facet normal -9.03137e-17 0.913545 0.406737
    outer loop
      vertex 9 -15.1846 8.64033
      vertex -9 -14.8105 7.8
      vertex -9 -15.1846 8.64033
    endloop
  endfacet
  facet normal -4.61655e-17 0.978148 0.207911
    outer loop
      vertex 9 -15.1846 8.64033
      vertex -9 -15.1846 8.64033
      vertex 9 -15.3759 9.54008
    endloop
  endfacet
  facet normal -4.61655e-17 0.978148 0.207911
    outer loop
      vertex 9 -15.3759 9.54008
      vertex -9 -15.1846 8.64033
      vertex -9 -15.3759 9.54008
    endloop
  endfacet
  facet normal 4.61655e-17 0.978148 -0.207911
    outer loop
      vertex 9 -15.1846 31.3597
      vertex 9 -15.3759 30.4599
      vertex -9 -15.1846 31.3597
    endloop
  endfacet
  facet normal 4.61655e-17 0.978148 -0.207911
    outer loop
      vertex -9 -15.1846 31.3597
      vertex 9 -15.3759 30.4599
      vertex -9 -15.3759 30.4599
    endloop
  endfacet
  facet normal 0 1 0
    outer loop
      vertex 9 -15.3759 30.4599
      vertex 9 -15.3759 29.5401
      vertex -9 -15.3759 30.4599
    endloop
  endfacet
  facet normal 0 1 0
    outer loop
      vertex -9 -15.3759 30.4599
      vertex 9 -15.3759 29.5401
      vertex -9 -15.3759 29.5401
    endloop
  endfacet
  facet normal 9.03137e-17 0.913545 -0.406737
    outer loop
      vertex 9 -14.8105 32.2
      vertex 9 -15.1846 31.3597
      vertex -9 -14.8105 32.2
    endloop
  endfacet
  facet normal 9.03137e-17 0.913545 -0.406737
    outer loop
      vertex -9 -14.8105 32.2
      vertex 9 -15.1846 31.3597
      vertex -9 -15.1846 31.3597
    endloop
  endfacet
  facet normal 1.30515e-16 0.809017 -0.587785
    outer loop
      vertex 9 -14.2698 32.9442
      vertex 9 -14.8105 32.2
      vertex -9 -14.2698 32.9442
    endloop
  endfacet
  facet normal 1.30515e-16 0.809017 -0.587785
    outer loop
      vertex -9 -14.2698 32.9442
      vertex 9 -14.8105 32.2
      vertex -9 -14.8105 32.2
    endloop
  endfacet
  facet normal 1.65011e-16 0.669131 -0.743145
    outer loop
      vertex 9 -13.5863 33.5597
      vertex 9 -14.2698 32.9442
      vertex -9 -13.5863 33.5597
    endloop
  endfacet
  facet normal 1.65011e-16 0.669131 -0.743145
    outer loop
      vertex -9 -13.5863 33.5597
      vertex 9 -14.2698 32.9442
      vertex -9 -14.2698 32.9442
    endloop
  endfacet
  facet normal 1.92296e-16 0.5 -0.866026
    outer loop
      vertex 9 -12.7896 34.0196
      vertex 9 -13.5863 33.5597
      vertex -9 -12.7896 34.0196
    endloop
  endfacet
  facet normal 1.92296e-16 0.5 -0.866026
    outer loop
      vertex -9 -12.7896 34.0196
      vertex 9 -13.5863 33.5597
      vertex -9 -13.5863 33.5597
    endloop
  endfacet
  facet normal 2.11177e-16 0.309017 -0.951057
    outer loop
      vertex 9 -11.9148 34.3038
      vertex 9 -12.7896 34.0196
      vertex -9 -11.9148 34.3038
    endloop
  endfacet
  facet normal 2.11177e-16 0.309017 -0.951057
    outer loop
      vertex -9 -11.9148 34.3038
      vertex 9 -12.7896 34.0196
      vertex -9 -12.7896 34.0196
    endloop
  endfacet
  facet normal 2.20828e-16 0.104529 -0.994522
    outer loop
      vertex 9 -11 34.4
      vertex 9 -11.9148 34.3038
      vertex -9 -11 34.4
    endloop
  endfacet
  facet normal 2.20828e-16 0.104529 -0.994522
    outer loop
      vertex -9 -11 34.4
      vertex 9 -11.9148 34.3038
      vertex -9 -11.9148 34.3038
    endloop
  endfacet
  facet normal 2.20828e-16 -0.104529 -0.994522
    outer loop
      vertex 9 -10.0852 34.3038
      vertex 9 -11 34.4
      vertex -9 -10.0852 34.3038
    endloop
  endfacet
  facet normal 2.20828e-16 -0.104529 -0.994522
    outer loop
      vertex -9 -10.0852 34.3038
      vertex 9 -11 34.4
      vertex -9 -11 34.4
    endloop
  endfacet
  facet normal 2.11177e-16 -0.309017 -0.951057
    outer loop
      vertex 9 -9.21036 34.0196
      vertex 9 -10.0852 34.3038
      vertex -9 -9.21036 34.0196
    endloop
  endfacet
  facet normal 2.11177e-16 -0.309017 -0.951057
    outer loop
      vertex -9 -9.21036 34.0196
      vertex 9 -10.0852 34.3038
      vertex -9 -10.0852 34.3038
    endloop
  endfacet
  facet normal 1.92296e-16 -0.5 -0.866026
    outer loop
      vertex 9 -8.41374 33.5597
      vertex 9 -9.21036 34.0196
      vertex -9 -8.41374 33.5597
    endloop
  endfacet
  facet normal 1.92296e-16 -0.5 -0.866026
    outer loop
      vertex -9 -8.41374 33.5597
      vertex 9 -9.21036 34.0196
      vertex -9 -9.21036 34.0196
    endloop
  endfacet
  facet normal 1.65011e-16 -0.669131 -0.743145
    outer loop
      vertex 9 -7.73016 32.9442
      vertex 9 -8.41374 33.5597
      vertex -9 -7.73016 32.9442
    endloop
  endfacet
  facet normal 1.65011e-16 -0.669131 -0.743145
    outer loop
      vertex -9 -7.73016 32.9442
      vertex 9 -8.41374 33.5597
      vertex -9 -8.41374 33.5597
    endloop
  endfacet
  facet normal 1.30515e-16 -0.809017 -0.587785
    outer loop
      vertex -9 -7.18949 32.2
      vertex 9 -7.18949 32.2
      vertex 9 -7.73016 32.9442
    endloop
  endfacet
  facet normal 1.30515e-16 -0.809017 -0.587785
    outer loop
      vertex -9 -7.73016 32.9442
      vertex -9 -7.18949 32.2
      vertex 9 -7.73016 32.9442
    endloop
  endfacet
  facet normal 9.03137e-17 -0.913545 -0.406737
    outer loop
      vertex -9 -6.81535 31.3597
      vertex 9 -6.81535 31.3597
      vertex 9 -7.18949 32.2
    endloop
  endfacet
  facet normal 9.03137e-17 -0.913545 -0.406737
    outer loop
      vertex -9 -7.18949 32.2
      vertex -9 -6.81535 31.3597
      vertex 9 -7.18949 32.2
    endloop
  endfacet
  facet normal 4.61655e-17 -0.978148 -0.207911
    outer loop
      vertex -9 -6.6241 30.4599
      vertex 9 -6.6241 30.4599
      vertex 9 -6.81535 31.3597
    endloop
  endfacet
  facet normal 4.61655e-17 -0.978148 -0.207911
    outer loop
      vertex -9 -6.81535 31.3597
      vertex -9 -6.6241 30.4599
      vertex 9 -6.81535 31.3597
    endloop
  endfacet
  facet normal 0 -1 0
    outer loop
      vertex 9 -6.6241 29.5401
      vertex 9 -6.6241 30.4599
      vertex -9 -6.6241 30.4599
    endloop
  endfacet
  facet normal 0 -1 0
    outer loop
      vertex -9 -6.6241 29.5401
      vertex 9 -6.6241 29.5401
      vertex -9 -6.6241 30.4599
    endloop
  endfacet
  facet normal -4.61655e-17 -0.978148 0.207911
    outer loop
      vertex 9 -6.81535 28.6403
      vertex 9 -6.6241 29.5401
      vertex -9 -6.6241 29.5401
    endloop
  endfacet
  facet normal -4.61655e-17 -0.978148 0.207911
    outer loop
      vertex -9 -6.81535 28.6403
      vertex 9 -6.81535 28.6403
      vertex -9 -6.6241 29.5401
    endloop
  endfacet
  facet normal -9.03137e-17 -0.913545 0.406737
    outer loop
      vertex 9 -7.18949 27.8
      vertex 9 -6.81535 28.6403
      vertex -9 -6.81535 28.6403
    endloop
  endfacet
  facet normal -9.03137e-17 -0.913545 0.406737
    outer loop
      vertex -9 -7.18949 27.8
      vertex 9 -7.18949 27.8
      vertex -9 -6.81535 28.6403
    endloop
  endfacet
  facet normal -1.30515e-16 -0.809017 0.587785
    outer loop
      vertex 9 -7.73016 27.0558
      vertex 9 -7.18949 27.8
      vertex -9 -7.18949 27.8
    endloop
  endfacet
  facet normal -1.30515e-16 -0.809017 0.587785
    outer loop
      vertex -9 -7.73016 27.0558
      vertex 9 -7.73016 27.0558
      vertex -9 -7.18949 27.8
    endloop
  endfacet
  facet normal -1.65011e-16 -0.669131 0.743145
    outer loop
      vertex 9 -8.41374 26.4403
      vertex 9 -7.73016 27.0558
      vertex -9 -7.73016 27.0558
    endloop
  endfacet
  facet normal -1.65011e-16 -0.669131 0.743145
    outer loop
      vertex -9 -8.41374 26.4403
      vertex 9 -8.41374 26.4403
      vertex -9 -7.73016 27.0558
    endloop
  endfacet
  facet normal -1.92296e-16 -0.5 0.866026
    outer loop
      vertex 9 -9.21036 25.9804
      vertex 9 -8.41374 26.4403
      vertex -9 -8.41374 26.4403
    endloop
  endfacet
  facet normal -1.92296e-16 -0.5 0.866026
    outer loop
      vertex -9 -9.21036 25.9804
      vertex 9 -9.21036 25.9804
      vertex -9 -8.41374 26.4403
    endloop
  endfacet
  facet normal -2.11177e-16 -0.309017 0.951057
    outer loop
      vertex 9 -10.0852 25.6962
      vertex 9 -9.21036 25.9804
      vertex -9 -9.21036 25.9804
    endloop
  endfacet
  facet normal -2.11177e-16 -0.309017 0.951057
    outer loop
      vertex -9 -10.0852 25.6962
      vertex 9 -10.0852 25.6962
      vertex -9 -9.21036 25.9804
    endloop
  endfacet
  facet normal -2.20828e-16 -0.104529 0.994522
    outer loop
      vertex 9 -11 25.6
      vertex 9 -10.0852 25.6962
      vertex -9 -10.0852 25.6962
    endloop
  endfacet
  facet normal -2.20828e-16 -0.104529 0.994522
    outer loop
      vertex -9 -11 25.6
      vertex 9 -11 25.6
      vertex -9 -10.0852 25.6962
    endloop
  endfacet
  facet normal -2.20828e-16 0.104529 0.994522
    outer loop
      vertex 9 -11.9148 25.6962
      vertex 9 -11 25.6
      vertex -9 -11 25.6
    endloop
  endfacet
  facet normal -2.20828e-16 0.104529 0.994522
    outer loop
      vertex -9 -11.9148 25.6962
      vertex 9 -11.9148 25.6962
      vertex -9 -11 25.6
    endloop
  endfacet
  facet normal -2.11177e-16 0.309017 0.951057
    outer loop
      vertex 9 -12.7896 25.9804
      vertex 9 -11.9148 25.6962
      vertex -9 -11.9148 25.6962
    endloop
  endfacet
  facet normal -2.11177e-16 0.309017 0.951057
    outer loop
      vertex -9 -12.7896 25.9804
      vertex 9 -12.7896 25.9804
      vertex -9 -11.9148 25.6962
    endloop
  endfacet
  facet normal -1.92296e-16 0.5 0.866026
    outer loop
      vertex 9 -13.5863 26.4403
      vertex 9 -12.7896 25.9804
      vertex -9 -12.7896 25.9804
    endloop
  endfacet
  facet normal -1.92296e-16 0.5 0.866026
    outer loop
      vertex -9 -13.5863 26.4403
      vertex 9 -13.5863 26.4403
      vertex -9 -12.7896 25.9804
    endloop
  endfacet
  facet normal -1.65011e-16 0.669131 0.743145
    outer loop
      vertex 9 -14.2698 27.0558
      vertex 9 -13.5863 26.4403
      vertex -9 -13.5863 26.4403
    endloop
  endfacet
  facet normal -1.65011e-16 0.669131 0.743145
    outer loop
      vertex -9 -14.2698 27.0558
      vertex 9 -14.2698 27.0558
      vertex -9 -13.5863 26.4403
    endloop
  endfacet
  facet normal -1.30515e-16 0.809017 0.587785
    outer loop
      vertex 9 -14.2698 27.0558
      vertex -9 -14.2698 27.0558
      vertex 9 -14.8105 27.8
    endloop
  endfacet
  facet normal -1.30515e-16 0.809017 0.587785
    outer loop
      vertex 9 -14.8105 27.8
      vertex -9 -14.2698 27.0558
      vertex -9 -14.8105 27.8
    endloop
  endfacet
  facet normal -9.03137e-17 0.913545 0.406737
    outer loop
      vertex 9 -14.8105 27.8
      vertex -9 -14.8105 27.8
      vertex 9 -15.1846 28.6403
    endloop
  endfacet
  facet normal -9.03137e-17 0.913545 0.406737
    outer loop
      vertex 9 -15.1846 28.6403
      vertex -9 -14.8105 27.8
      vertex -9 -15.1846 28.6403
    endloop
  endfacet
  facet normal -4.61655e-17 0.978148 0.207911
    outer loop
      vertex 9 -15.1846 28.6403
      vertex -9 -15.1846 28.6403
      vertex 9 -15.3759 29.5401
    endloop
  endfacet
  facet normal -4.61655e-17 0.978148 0.207911
    outer loop
      vertex 9 -15.3759 29.5401
      vertex -9 -15.1846 28.6403
      vertex -9 -15.3759 29.5401
    endloop
  endfacet
  facet normal 0 1 0
    outer loop
      vertex -1.2063 -13 41
      vertex -0.873229 -13 40.8918
      vertex -9 -13 41
    endloop
  endfacet
  facet normal 0 1 0
    outer loop
      vertex -9 -13 41
      vertex -0.873229 -13 40.8918
      vertex 1.55431e-15 -13 40.8
    endloop
  endfacet
  facet normal 0 1 0
    outer loop
      vertex 0.873229 -13 40.8918
      vertex 1.2063 -13 41
      vertex 9 -13 41
    endloop
  endfacet
  facet normal 0 1 0
    outer loop
      vertex 0.873229 -13 40.8918
      vertex 9 -13 41
      vertex 1.55431e-15 -13 40.8
    endloop
  endfacet
  facet normal 0 1 0
    outer loop
      vertex 1.55431e-15 -13 40.8
      vertex 9 -13 41
      vertex 9 -13 39
    endloop
  endfacet
  facet normal 0 1 0
    outer loop
      vertex 1.55431e-15 -13 40.8
      vertex 9 -13 39
      vertex -9 -13 41
    endloop
  endfacet
  facet normal 0 1 0
    outer loop
      vertex -9 -13 41
      vertex 9 -13 39
      vertex -9 -13 39
    endloop
  endfacet
  facet normal 0 0 -1
    outer loop
      vertex -1.2063 -9.5 41
      vertex -1.2063 -13 41
      vertex -9 -9.5 41
    endloop
  endfacet
  facet normal 0 0 -1
    outer loop
      vertex -9 -9.5 41
      vertex -1.2063 -13 41
      vertex -9 -13 41
    endloop
  endfacet
  facet normal 0 -1 0
    outer loop
      vertex 9 -9.5 39
      vertex 9 -9.5 41
      vertex 1.2063 -9.5 41
    endloop
  endfacet
  facet normal 0 -1 0
    outer loop
      vertex 2.33147e-15 -9.5 40.8
      vertex 9 -9.5 39
      vertex 0.873229 -9.5 40.8918
    endloop
  endfacet
  facet normal 0 -1 0
    outer loop
      vertex 0.873229 -9.5 40.8918
      vertex 9 -9.5 39
      vertex 1.2063 -9.5 41
    endloop
  endfacet
  facet normal 0 -1 0
    outer loop
      vertex -0.873229 -9.5 40.8918
      vertex 9 -9.5 39
      vertex 2.33147e-15 -9.5 40.8
    endloop
  endfacet
  facet normal 0 -1 0
    outer loop
      vertex -9 -9.5 41
      vertex 9 -9.5 39
      vertex -0.873229 -9.5 40.8918
    endloop
  endfacet
  facet normal 0 -1 0
    outer loop
      vertex -9 -9.5 41
      vertex -0.873229 -9.5 40.8918
      vertex -1.2063 -9.5 41
    endloop
  endfacet
  facet normal 0 -1 0
    outer loop
      vertex -9 -9.5 39
      vertex 9 -9.5 39
      vertex -9 -9.5 41
    endloop
  endfacet
  facet normal 0 0 1
    outer loop
      vertex 9 -13 39
      vertex 9 -9.5 39
      vertex -9 -9.5 39
    endloop
  endfacet
  facet normal 0 0 1
    outer loop
      vertex -9 -13 39
      vertex 9 -13 39
      vertex -9 -9.5 39
    endloop
  endfacet
  facet normal 0 -1 0
    outer loop
      vertex -3.26984 -22 17.0558
      vertex -6 -22 2.44249e-15
      vertex 6 -22 2.44249e-15
    endloop
  endfacet
  facet normal 0 -1 0
    outer loop
      vertex 4.3759 -22 19.5401
      vertex 4.18465 -22 18.6403
      vertex 6 -22 2.44249e-15
    endloop
  endfacet
  facet normal 0 -1 0
    outer loop
      vertex -6 -22 45
      vertex -6 -22 2.44249e-15
      vertex -4.3759 -22 19.5401
    endloop
  endfacet
  facet normal 0 -1 0
    outer loop
      vertex -2.58625 -22 16.4403
      vertex -3.26984 -22 17.0558
      vertex 6 -22 2.44249e-15
    endloop
  endfacet
  facet normal 0 -1 0
    outer loop
      vertex -6 -22 45
      vertex -4.3759 -22 19.5401
      vertex -4.3759 -22 20.4599
    endloop
  endfacet
  facet normal 0 -1 0
    outer loop
      vertex -1.78964 -22 15.9804
      vertex -2.58625 -22 16.4403
      vertex 6 -22 2.44249e-15
    endloop
  endfacet
  facet normal 0 -1 0
    outer loop
      vertex -6 -22 45
      vertex -4.3759 -22 20.4599
      vertex -4.18465 -22 21.3597
    endloop
  endfacet
  facet normal 0 -1 0
    outer loop
      vertex -6 -22 45
      vertex -4.18465 -22 21.3597
      vertex -3.81051 -22 22.2
    endloop
  endfacet
  facet normal 0 -1 0
    outer loop
      vertex -6 -22 45
      vertex -3.81051 -22 22.2
      vertex -3.26984 -22 22.9442
    endloop
  endfacet
  facet normal 0 -1 0
    outer loop
      vertex 0 -22 15.6
      vertex -0.914811 -22 15.6962
      vertex 6 -22 2.44249e-15
    endloop
  endfacet
  facet normal 0 -1 0
    outer loop
      vertex -6 -22 45
      vertex -3.26984 -22 22.9442
      vertex -2.58625 -22 23.5597
    endloop
  endfacet
  facet normal 0 -1 0
    outer loop
      vertex -0.914811 -22 15.6962
      vertex -1.78964 -22 15.9804
      vertex 6 -22 2.44249e-15
    endloop
  endfacet
  facet normal 0 -1 0
    outer loop
      vertex -6 -22 45
      vertex -2.58625 -22 23.5597
      vertex -1.78964 -22 24.0196
    endloop
  endfacet
  facet normal 0 -1 0
    outer loop
      vertex 4.18465 -22 18.6403
      vertex 3.81051 -22 17.8
      vertex 6 -22 2.44249e-15
    endloop
  endfacet
  facet normal 0 -1 0
    outer loop
      vertex -6 -22 45
      vertex -1.78964 -22 24.0196
      vertex -0.914811 -22 24.3038
    endloop
  endfacet
  facet normal 0 -1 0
    outer loop
      vertex 1.78964 -22 15.9804
      vertex 0.914811 -22 15.6962
      vertex 6 -22 2.44249e-15
    endloop
  endfacet
  facet normal 0 -1 0
    outer loop
      vertex 6 -22 45
      vertex -6 -22 45
      vertex 0 -22 24.4
    endloop
  endfacet
  facet normal 0 -1 0
    outer loop
      vertex 0.914811 -22 15.6962
      vertex 0 -22 15.6
      vertex 6 -22 2.44249e-15
    endloop
  endfacet
  facet normal 0 -1 0
    outer loop
      vertex 6 -22 45
      vertex 0 -22 24.4
      vertex 0.914811 -22 24.3038
    endloop
  endfacet
  facet normal 0 -1 0
    outer loop
      vertex 6 -22 45
      vertex 0.914811 -22 24.3038
      vertex 1.78964 -22 24.0196
    endloop
  endfacet
  facet normal 0 -1 0
    outer loop
      vertex 3.26984 -22 17.0558
      vertex 2.58625 -22 16.4403
      vertex 6 -22 2.44249e-15
    endloop
  endfacet
  facet normal 0 -1 0
    outer loop
      vertex 6 -22 45
      vertex 1.78964 -22 24.0196
      vertex 2.58625 -22 23.5597
    endloop
  endfacet
  facet normal 0 -1 0
    outer loop
      vertex 3.81051 -22 17.8
      vertex 3.26984 -22 17.0558
      vertex 6 -22 2.44249e-15
    endloop
  endfacet
  facet normal 0 -1 0
    outer loop
      vertex 6 -22 45
      vertex 2.58625 -22 23.5597
      vertex 3.26984 -22 22.9442
    endloop
  endfacet
  facet normal 0 -1 0
    outer loop
      vertex 2.58625 -22 16.4403
      vertex 1.78964 -22 15.9804
      vertex 6 -22 2.44249e-15
    endloop
  endfacet
  facet normal 0 -1 0
    outer loop
      vertex 6 -22 45
      vertex 3.26984 -22 22.9442
      vertex 3.81051 -22 22.2
    endloop
  endfacet
  facet normal 0 -1 0
    outer loop
      vertex 6 -22 45
      vertex 3.81051 -22 22.2
      vertex 4.18465 -22 21.3597
    endloop
  endfacet
  facet normal 0 -1 0
    outer loop
      vertex 6 -22 45
      vertex 4.3759 -22 20.4599
      vertex 6 -22 2.44249e-15
    endloop
  endfacet
  facet normal 0 -1 0
    outer loop
      vertex 6 -22 45
      vertex 4.18465 -22 21.3597
      vertex 4.3759 -22 20.4599
    endloop
  endfacet
  facet normal 0 -1 0
    outer loop
      vertex 4.3759 -22 20.4599
      vertex 4.3759 -22 19.5401
      vertex 6 -22 2.44249e-15
    endloop
  endfacet
  facet normal 0 -1 0
    outer loop
      vertex -3.81051 -22 17.8
      vertex -6 -22 2.44249e-15
      vertex -3.26984 -22 17.0558
    endloop
  endfacet
  facet normal 0 -1 0
    outer loop
      vertex -4.18465 -22 18.6403
      vertex -6 -22 2.44249e-15
      vertex -3.81051 -22 17.8
    endloop
  endfacet
  facet normal 0 -1 0
    outer loop
      vertex -4.3759 -22 19.5401
      vertex -6 -22 2.44249e-15
      vertex -4.18465 -22 18.6403
    endloop
  endfacet
  facet normal 0 -1 0
    outer loop
      vertex -0.914811 -22 24.3038
      vertex 0 -22 24.4
      vertex -6 -22 45
    endloop
  endfacet
  facet normal -1.57009e-16 -0.707107 0.707107
    outer loop
      vertex -6 -22 45
      vertex 6 -22 45
      vertex 7.5 -20.5 46.5
    endloop
  endfacet
  facet normal -1.57009e-16 -0.707107 0.707107
    outer loop
      vertex 3.68183 -20 47
      vertex -6 -22 45
      vertex 7 -20 47
    endloop
  endfacet
  facet normal -1.57009e-16 -0.707107 0.707107
    outer loop
      vertex 7 -20 47
      vertex -6 -22 45
      vertex 7.5 -20.5 46.5
    endloop
  endfacet
  facet normal -1.57009e-16 -0.707107 0.707107
    outer loop
      vertex -7 -20 47
      vertex -6 -22 45
      vertex -3.68183 -20 47
    endloop
  endfacet
  facet normal -1.57009e-16 -0.707107 0.707107
    outer loop
      vertex -7.5 -20.5 46.5
      vertex -6 -22 45
      vertex -7 -20 47
    endloop
  endfacet
  facet normal -1.57009e-16 -0.707107 0.707107
    outer loop
      vertex 3.68183 -20 47
      vertex -3.68183 -20 47
      vertex -6 -22 45
    endloop
  endfacet
  facet normal 0.707107 -0.707107 0
    outer loop
      vertex 9 -19 2.44249e-15
      vertex 9 -19 45
      vertex 7.5 -20.5 46.5
    endloop
  endfacet
  facet normal 0.707107 -0.707107 0
    outer loop
      vertex 6 -22 2.44249e-15
      vertex 9 -19 2.44249e-15
      vertex 6 -22 45
    endloop
  endfacet
  facet normal 0.707107 -0.707107 0
    outer loop
      vertex 6 -22 45
      vertex 9 -19 2.44249e-15
      vertex 7.5 -20.5 46.5
    endloop
  endfacet
  facet normal 1 0 0
    outer loop
      vertex 9 -10.0852 5.69615
      vertex 9 -19 2.44249e-15
      vertex 9 5.42342e-31 2.44249e-15
    endloop
  endfacet
  facet normal 1 0 0
    outer loop
      vertex 9 -19 45
      vertex 9 -19 2.44249e-15
      vertex 9 -15.3759 9.54008
    endloop
  endfacet
  facet normal 1 0 0
    outer loop
      vertex 9 -9.21036 5.9804
      vertex 9 -10.0852 5.69615
      vertex 9 5.42342e-31 2.44249e-15
    endloop
  endfacet
  facet normal 1 0 0
    outer loop
      vertex 9 -19 45
      vertex 9 -15.3759 9.54008
      vertex 9 -15.3759 10.4599
    endloop
  endfacet
  facet normal 1 0 0
    outer loop
      vertex 9 -15.3759 30.4599
      vertex 9 -15.1846 31.3597
      vertex 9 -19 45
    endloop
  endfacet
  facet normal 1 0 0
    outer loop
      vertex 9 -19 45
      vertex 9 -15.3759 10.4599
      vertex 9 -15.1846 11.3597
    endloop
  endfacet
  facet normal 1 0 0
    outer loop
      vertex 9 -19 45
      vertex 9 -15.1846 11.3597
      vertex 9 -14.8105 12.2
    endloop
  endfacet
  facet normal 1 0 0
    outer loop
      vertex 9 -8.41374 6.44033
      vertex 9 -9.21036 5.9804
      vertex 9 5.42342e-31 2.44249e-15
    endloop
  endfacet
  facet normal 1 0 0
    outer loop
      vertex 9 -19 45
      vertex 9 -14.8105 12.2
      vertex 9 -14.2698 12.9442
    endloop
  endfacet
  facet normal 1 0 0
    outer loop
      vertex 9 -19 45
      vertex 9 -14.2698 12.9442
      vertex 9 -13.5863 13.5597
    endloop
  endfacet
  facet normal 1 0 0
    outer loop
      vertex 9 -7.18949 7.8
      vertex 9 -7.73016 7.05583
      vertex 9 5.42342e-31 2.44249e-15
    endloop
  endfacet
  facet normal 1 0 0
    outer loop
      vertex 9 -19 45
      vertex 9 -13.5863 13.5597
      vertex 9 -12.7896 14.0196
    endloop
  endfacet
  facet normal 1 0 0
    outer loop
      vertex 9 -7.73016 7.05583
      vertex 9 -8.41374 6.44033
      vertex 9 5.42342e-31 2.44249e-15
    endloop
  endfacet
  facet normal 1 0 0
    outer loop
      vertex 9 -19 45
      vertex 9 -12.7896 14.0196
      vertex 9 -11.9148 14.3038
    endloop
  endfacet
  facet normal 1 0 0
    outer loop
      vertex 9 -9.5 41
      vertex 9 -9.5 39
      vertex 9 5.42342e-31 45
    endloop
  endfacet
  facet normal 1 0 0
    outer loop
      vertex 9 -6.81535 8.64033
      vertex 9 -7.18949 7.8
      vertex 9 5.42342e-31 2.44249e-15
    endloop
  endfacet
  facet normal 1 0 0
    outer loop
      vertex 9 -14.2698 27.0558
      vertex 9 -14.8105 27.8
      vertex 9 -11 14.4
    endloop
  endfacet
  facet normal 1 0 0
    outer loop
      vertex 9 -13.5863 26.4403
      vertex 9 -10.0852 14.3038
      vertex 9 -9.21036 14.0196
    endloop
  endfacet
  facet normal 1 0 0
    outer loop
      vertex 9 -6.6241 10.4599
      vertex 9 -6.6241 9.54008
      vertex 9 5.42342e-31 2.44249e-15
    endloop
  endfacet
  facet normal 1 0 0
    outer loop
      vertex 9 -12.7896 25.9804
      vertex 9 -9.21036 14.0196
      vertex 9 -8.41374 13.5597
    endloop
  endfacet
  facet normal 1 0 0
    outer loop
      vertex 9 -6.81535 11.3597
      vertex 9 -6.6241 10.4599
      vertex 9 5.42342e-31 2.44249e-15
    endloop
  endfacet
  facet normal 1 0 0
    outer loop
      vertex 9 -14.2698 32.9442
      vertex 9 -13.5863 33.5597
      vertex 9 -19 45
    endloop
  endfacet
  facet normal 1 0 0
    outer loop
      vertex 9 -14.8105 27.8
      vertex 9 -11.9148 14.3038
      vertex 9 -11 14.4
    endloop
  endfacet
  facet normal 1 0 0
    outer loop
      vertex 9 -11 5.6
      vertex 9 -19 2.44249e-15
      vertex 9 -10.0852 5.69615
    endloop
  endfacet
  facet normal 1 0 0
    outer loop
      vertex 9 -11.9148 5.69615
      vertex 9 -19 2.44249e-15
      vertex 9 -11 5.6
    endloop
  endfacet
  facet normal 1 0 0
    outer loop
      vertex 9 -12.7896 5.9804
      vertex 9 -19 2.44249e-15
      vertex 9 -11.9148 5.69615
    endloop
  endfacet
  facet normal 1 0 0
    outer loop
      vertex 9 -13.5863 6.44033
      vertex 9 -19 2.44249e-15
      vertex 9 -12.7896 5.9804
    endloop
  endfacet
  facet normal 1 0 0
    outer loop
      vertex 9 -14.2698 7.05583
      vertex 9 -19 2.44249e-15
      vertex 9 -13.5863 6.44033
    endloop
  endfacet
  facet normal 1 0 0
    outer loop
      vertex 9 -14.8105 7.8
      vertex 9 -19 2.44249e-15
      vertex 9 -14.2698 7.05583
    endloop
  endfacet
  facet normal 1 0 0
    outer loop
      vertex 9 -15.1846 8.64033
      vertex 9 -19 2.44249e-15
      vertex 9 -14.8105 7.8
    endloop
  endfacet
  facet normal 1 0 0
    outer loop
      vertex 9 -15.3759 9.54008
      vertex 9 -19 2.44249e-15
      vertex 9 -15.1846 8.64033
    endloop
  endfacet
  facet normal 1 0 0
    outer loop
      vertex 9 -19 45
      vertex 9 -15.3759 29.5401
      vertex 9 -15.3759 30.4599
    endloop
  endfacet
  facet normal 1 0 0
    outer loop
      vertex 9 -12.7896 25.9804
      vertex 9 -13.5863 26.4403
      vertex 9 -9.21036 14.0196
    endloop
  endfacet
  facet normal 1 0 0
    outer loop
      vertex 9 -11.9148 25.6962
      vertex 9 -7.73016 12.9442
      vertex 9 -7.18949 12.2
    endloop
  endfacet
  facet normal 1 0 0
    outer loop
      vertex 9 -11.9148 25.6962
      vertex 9 -12.7896 25.9804
      vertex 9 -8.41374 13.5597
    endloop
  endfacet
  facet normal 1 0 0
    outer loop
      vertex 9 -11 25.6
      vertex 9 -7.18949 12.2
      vertex 9 5.42342e-31 2.44249e-15
    endloop
  endfacet
  facet normal 1 0 0
    outer loop
      vertex 9 -13 39
      vertex 9 -19 45
      vertex 9 -13.5863 33.5597
    endloop
  endfacet
  facet normal 1 0 0
    outer loop
      vertex 9 -10.0852 25.6962
      vertex 9 -11 25.6
      vertex 9 5.42342e-31 2.44249e-15
    endloop
  endfacet
  facet normal 1 0 0
    outer loop
      vertex 9 5.42342e-31 45
      vertex 9 -13.5863 33.5597
      vertex 9 -12.7896 34.0196
    endloop
  endfacet
  facet normal 1 0 0
    outer loop
      vertex 9 -9.21036 25.9804
      vertex 9 -10.0852 25.6962
      vertex 9 5.42342e-31 2.44249e-15
    endloop
  endfacet
  facet normal 1 0 0
    outer loop
      vertex 9 5.42342e-31 45
      vertex 9 -12.7896 34.0196
      vertex 9 -11.9148 34.3038
    endloop
  endfacet
  facet normal 1 0 0
    outer loop
      vertex 9 -11 25.6
      vertex 9 -11.9148 25.6962
      vertex 9 -7.18949 12.2
    endloop
  endfacet
  facet normal 1 0 0
    outer loop
      vertex 9 5.42342e-31 45
      vertex 9 -11.9148 34.3038
      vertex 9 -11 34.4
    endloop
  endfacet
  facet normal 1 0 0
    outer loop
      vertex 9 5.42342e-31 45
      vertex 9 -11 34.4
      vertex 9 -10.0852 34.3038
    endloop
  endfacet
  facet normal 1 0 0
    outer loop
      vertex 9 -7.73016 27.0558
      vertex 9 -8.41374 26.4403
      vertex 9 5.42342e-31 2.44249e-15
    endloop
  endfacet
  facet normal 1 0 0
    outer loop
      vertex 9 5.42342e-31 45
      vertex 9 -10.0852 34.3038
      vertex 9 -9.21036 34.0196
    endloop
  endfacet
  facet normal 1 0 0
    outer loop
      vertex 9 -7.18949 27.8
      vertex 9 -7.73016 27.0558
      vertex 9 5.42342e-31 2.44249e-15
    endloop
  endfacet
  facet normal 1 0 0
    outer loop
      vertex 9 5.42342e-31 45
      vertex 9 -9.21036 34.0196
      vertex 9 -8.41374 33.5597
    endloop
  endfacet
  facet normal 1 0 0
    outer loop
      vertex 9 -6.81535 28.6403
      vertex 9 -7.18949 27.8
      vertex 9 5.42342e-31 2.44249e-15
    endloop
  endfacet
  facet normal 1 0 0
    outer loop
      vertex 9 5.42342e-31 45
      vertex 9 -8.41374 33.5597
      vertex 9 -7.73016 32.9442
    endloop
  endfacet
  facet normal 1 0 0
    outer loop
      vertex 9 -6.6241 29.5401
      vertex 9 -6.81535 28.6403
      vertex 9 5.42342e-31 2.44249e-15
    endloop
  endfacet
  facet normal 1 0 0
    outer loop
      vertex 9 5.42342e-31 45
      vertex 9 -7.73016 32.9442
      vertex 9 -7.18949 32.2
    endloop
  endfacet
  facet normal 1 0 0
    outer loop
      vertex 9 5.42342e-31 45
      vertex 9 -6.81535 31.3597
      vertex 9 5.42342e-31 2.44249e-15
    endloop
  endfacet
  facet normal 1 0 0
    outer loop
      vertex 9 5.42342e-31 45
      vertex 9 -7.18949 32.2
      vertex 9 -6.81535 31.3597
    endloop
  endfacet
  facet normal 1 0 0
    outer loop
      vertex 9 -6.81535 31.3597
      vertex 9 -6.6241 30.4599
      vertex 9 5.42342e-31 2.44249e-15
    endloop
  endfacet
  facet normal 1 0 0
    outer loop
      vertex 9 -6.6241 30.4599
      vertex 9 -6.6241 29.5401
      vertex 9 5.42342e-31 2.44249e-15
    endloop
  endfacet
  facet normal 1 0 0
    outer loop
      vertex 9 -8.41374 26.4403
      vertex 9 -9.21036 25.9804
      vertex 9 5.42342e-31 2.44249e-15
    endloop
  endfacet
  facet normal 1 0 0
    outer loop
      vertex 9 -13.5863 26.4403
      vertex 9 -11 14.4
      vertex 9 -10.0852 14.3038
    endloop
  endfacet
  facet normal 1 0 0
    outer loop
      vertex 9 -11.9148 25.6962
      vertex 9 -8.41374 13.5597
      vertex 9 -7.73016 12.9442
    endloop
  endfacet
  facet normal 1 0 0
    outer loop
      vertex 9 -13.5863 26.4403
      vertex 9 -14.2698 27.0558
      vertex 9 -11 14.4
    endloop
  endfacet
  facet normal 1 0 0
    outer loop
      vertex 9 -14.8105 27.8
      vertex 9 -15.1846 28.6403
      vertex 9 -11.9148 14.3038
    endloop
  endfacet
  facet normal 1 0 0
    outer loop
      vertex 9 -19 45
      vertex 9 -15.1846 28.6403
      vertex 9 -15.3759 29.5401
    endloop
  endfacet
  facet normal 1 0 0
    outer loop
      vertex 9 -19 45
      vertex 9 -11.9148 14.3038
      vertex 9 -15.1846 28.6403
    endloop
  endfacet
  facet normal 1 0 0
    outer loop
      vertex 9 -9.5 39
      vertex 9 -13 39
      vertex 9 -13.5863 33.5597
    endloop
  endfacet
  facet normal 1 0 0
    outer loop
      vertex 9 -13 41
      vertex 9 -19 45
      vertex 9 -13 39
    endloop
  endfacet
  facet normal 1 0 0
    outer loop
      vertex 9 5.42342e-31 45
      vertex 9 -19 45
      vertex 9 -13 41
    endloop
  endfacet
  facet normal 1 0 0
    outer loop
      vertex 9 5.42342e-31 45
      vertex 9 -13 41
      vertex 9 -9.5 41
    endloop
  endfacet
  facet normal 1 0 0
    outer loop
      vertex 9 5.42342e-31 45
      vertex 9 -9.5 39
      vertex 9 -13.5863 33.5597
    endloop
  endfacet
  facet normal 1 0 0
    outer loop
      vertex 9 -7.18949 12.2
      vertex 9 -6.81535 11.3597
      vertex 9 5.42342e-31 2.44249e-15
    endloop
  endfacet
  facet normal 1 0 0
    outer loop
      vertex 9 -6.6241 9.54008
      vertex 9 -6.81535 8.64033
      vertex 9 5.42342e-31 2.44249e-15
    endloop
  endfacet
  facet normal 1 0 0
    outer loop
      vertex 9 -15.1846 31.3597
      vertex 9 -14.8105 32.2
      vertex 9 -19 45
    endloop
  endfacet
  facet normal 1 0 0
    outer loop
      vertex 9 -14.8105 32.2
      vertex 9 -14.2698 32.9442
      vertex 9 -19 45
    endloop
  endfacet
  facet normal 0.707107 0 0.707107
    outer loop
      vertex 7.5 -20.5 46.5
      vertex 9 -19 45
      vertex 9 5.42342e-31 45
    endloop
  endfacet
  facet normal 0.707107 0 0.707107
    outer loop
      vertex 7 -20 47
      vertex 7.5 -20.5 46.5
      vertex 7 5.42342e-31 47
    endloop
  endfacet
  facet normal 0.707107 0 0.707107
    outer loop
      vertex 7 5.42342e-31 47
      vertex 7.5 -20.5 46.5
      vertex 9 5.42342e-31 45
    endloop
  endfacet
  facet normal 0 0 1
    outer loop
      vertex 3.68183 5.42342e-31 47
      vertex 3.68183 -20 47
      vertex 7 -20 47
    endloop
  endfacet
  facet normal 0 0 1
    outer loop
      vertex 7 5.42342e-31 47
      vertex 3.68183 5.42342e-31 47
      vertex 7 -20 47
    endloop
  endfacet
  facet normal -0.913546 2.93161e-16 -0.406736
    outer loop
      vertex 3.99444 5.42342e-31 46.2979
      vertex 3.99444 -20 46.2979
      vertex 3.68183 5.42342e-31 47
    endloop
  endfacet
  facet normal -0.913546 2.93161e-16 -0.406736
    outer loop
      vertex 3.68183 5.42342e-31 47
      vertex 3.99444 -20 46.2979
      vertex 3.68183 -20 47
    endloop
  endfacet
  facet normal -0.978147 2.63358e-16 -0.207912
    outer loop
      vertex 4.17699 5.42342e-31 45.439
      vertex 4.17699 -20 45.439
      vertex 3.99444 5.42342e-31 46.2979
    endloop
  endfacet
  facet normal -0.978147 2.63358e-16 -0.207912
    outer loop
      vertex 3.99444 5.42342e-31 46.2979
      vertex 4.17699 -20 45.439
      vertex 3.99444 -20 46.2979
    endloop
  endfacet
  facet normal -1 2.22045e-16 4.93038e-32
    outer loop
      vertex 4.17699 5.42342e-31 44.561
      vertex 4.17699 -20 44.561
      vertex 4.17699 5.42342e-31 45.439
    endloop
  endfacet
  facet normal -1 2.22045e-16 4.93038e-32
    outer loop
      vertex 4.17699 5.42342e-31 45.439
      vertex 4.17699 -20 44.561
      vertex 4.17699 -20 45.439
    endloop
  endfacet
  facet normal -0.978147 1.71027e-16 0.207912
    outer loop
      vertex 4.17699 5.42342e-31 44.561
      vertex 3.99444 5.42342e-31 43.7021
      vertex 4.17699 -20 44.561
    endloop
  endfacet
  facet normal -0.978147 1.71027e-16 0.207912
    outer loop
      vertex 4.17699 -20 44.561
      vertex 3.99444 5.42342e-31 43.7021
      vertex 3.99444 -20 43.7021
    endloop
  endfacet
  facet normal -0.913546 1.12534e-16 0.406736
    outer loop
      vertex 3.99444 5.42342e-31 43.7021
      vertex 3.63731 5.42342e-31 42.9
      vertex 3.99444 -20 43.7021
    endloop
  endfacet
  facet normal -0.913546 1.12534e-16 0.406736
    outer loop
      vertex 3.99444 -20 43.7021
      vertex 3.63731 5.42342e-31 42.9
      vertex 3.63731 -20 42.9
    endloop
  endfacet
  facet normal -0.809017 4.91232e-17 0.587785
    outer loop
      vertex 3.63731 5.42342e-31 42.9
      vertex 3.12121 5.42342e-31 42.1897
      vertex 3.63731 -20 42.9
    endloop
  endfacet
  facet normal -0.809017 4.91232e-17 0.587785
    outer loop
      vertex 3.63731 -20 42.9
      vertex 3.12121 5.42342e-31 42.1897
      vertex 3.12121 -20 42.1897
    endloop
  endfacet
  facet normal -0.66913 -1.64346e-17 0.743145
    outer loop
      vertex 3.12121 -20 42.1897
      vertex 3.12121 5.42342e-31 42.1897
      vertex 2.4687 5.42342e-31 41.6021
    endloop
  endfacet
  facet normal -0.66913 -1.64346e-17 0.743145
    outer loop
      vertex 2.4687 -20 41.6021
      vertex 3.12121 -20 42.1897
      vertex 2.4687 5.42342e-31 41.6021
    endloop
  endfacet
  facet normal -0.5 -8.12738e-17 0.866025
    outer loop
      vertex 2.4687 -20 41.6021
      vertex 2.4687 5.42342e-31 41.6021
      vertex 1.70829 5.42342e-31 41.1631
    endloop
  endfacet
  facet normal -0.5 -8.12738e-17 0.866025
    outer loop
      vertex 1.70829 -20 41.1631
      vertex 2.4687 -20 41.6021
      vertex 1.70829 5.42342e-31 41.1631
    endloop
  endfacet
  facet normal -0.309017 -1.42561e-16 0.951057
    outer loop
      vertex 1.70829 -20 41.1631
      vertex 1.70829 5.42342e-31 41.1631
      vertex 0.873229 5.42342e-31 40.8918
    endloop
  endfacet
  facet normal -0.309017 -1.42561e-16 0.951057
    outer loop
      vertex 1.2063 -9.5 41
      vertex 1.70829 -20 41.1631
      vertex 0.873229 5.42342e-31 40.8918
    endloop
  endfacet
  facet normal -0.309017 -1.42561e-16 0.951057
    outer loop
      vertex 0.873229 -9.5 40.8918
      vertex 1.2063 -9.5 41
      vertex 0.873229 5.42342e-31 40.8918
    endloop
  endfacet
  facet normal -0.309017 -1.42561e-16 0.951057
    outer loop
      vertex 1.2063 -13 41
      vertex 1.70829 -20 41.1631
      vertex 1.2063 -9.5 41
    endloop
  endfacet
  facet normal -0.309017 -1.42561e-16 0.951057
    outer loop
      vertex 0.873229 -20 40.8918
      vertex 1.70829 -20 41.1631
      vertex 0.873229 -13 40.8918
    endloop
  endfacet
  facet normal -0.309017 -1.42561e-16 0.951057
    outer loop
      vertex 1.2063 -13 41
      vertex 0.873229 -13 40.8918
      vertex 1.70829 -20 41.1631
    endloop
  endfacet
  facet normal -0.104528 -1.97618e-16 0.994522
    outer loop
      vertex 0.873229 -9.5 40.8918
      vertex 0.873229 5.42342e-31 40.8918
      vertex 4.44089e-15 5.42342e-31 40.8
    endloop
  endfacet
  facet normal -0.104528 -1.97618e-16 0.994522
    outer loop
      vertex 2.33147e-15 -9.5 40.8
      vertex 0.873229 -9.5 40.8918
      vertex 4.44089e-15 5.42342e-31 40.8
    endloop
  endfacet
  facet normal 0.104528 -2.44038e-16 0.994522
    outer loop
      vertex 2.33147e-15 -9.5 40.8
      vertex 4.44089e-15 5.42342e-31 40.8
      vertex -0.873229 5.42342e-31 40.8918
    endloop
  endfacet
  facet normal 0.104528 -2.44038e-16 0.994522
    outer loop
      vertex -0.873229 -9.5 40.8918
      vertex 2.33147e-15 -9.5 40.8
      vertex -0.873229 5.42342e-31 40.8918
    endloop
  endfacet
  facet normal 0.309017 -2.79793e-16 0.951057
    outer loop
      vertex -1.2063 -9.5 41
      vertex -1.70829 5.42342e-31 41.1631
      vertex -1.2063 -13 41
    endloop
  endfacet
  facet normal 0.309017 -2.79793e-16 0.951057
    outer loop
      vertex -0.873229 -20 40.8918
      vertex -0.873229 -13 40.8918
      vertex -1.2063 -13 41
    endloop
  endfacet
  facet normal 0.309017 -2.79793e-16 0.951057
    outer loop
      vertex -1.70829 -20 41.1631
      vertex -0.873229 -20 40.8918
      vertex -1.2063 -13 41
    endloop
  endfacet
  facet normal 0.309017 -2.79793e-16 0.951057
    outer loop
      vertex -0.873229 -9.5 40.8918
      vertex -0.873229 5.42342e-31 40.8918
      vertex -1.2063 -9.5 41
    endloop
  endfacet
  facet normal 0.309017 -2.79793e-16 0.951057
    outer loop
      vertex -0.873229 5.42342e-31 40.8918
      vertex -1.70829 5.42342e-31 41.1631
      vertex -1.2063 -9.5 41
    endloop
  endfacet
  facet normal 0.309017 -2.79793e-16 0.951057
    outer loop
      vertex -1.70829 5.42342e-31 41.1631
      vertex -1.70829 -20 41.1631
      vertex -1.2063 -13 41
    endloop
  endfacet
  facet normal 0.5 -3.03319e-16 0.866025
    outer loop
      vertex -1.70829 -20 41.1631
      vertex -1.70829 5.42342e-31 41.1631
      vertex -2.4687 5.42342e-31 41.6021
    endloop
  endfacet
  facet normal 0.5 -3.03319e-16 0.866025
    outer loop
      vertex -2.4687 -20 41.6021
      vertex -1.70829 -20 41.1631
      vertex -2.4687 5.42342e-31 41.6021
    endloop
  endfacet
  facet normal 0.66913 -3.13588e-16 0.743145
    outer loop
      vertex -2.4687 -20 41.6021
      vertex -2.4687 5.42342e-31 41.6021
      vertex -3.12121 5.42342e-31 42.1897
    endloop
  endfacet
  facet normal 0.66913 -3.13588e-16 0.743145
    outer loop
      vertex -3.12121 -20 42.1897
      vertex -2.4687 -20 41.6021
      vertex -3.12121 5.42342e-31 42.1897
    endloop
  endfacet
  facet normal 0.809017 -3.10152e-16 0.587785
    outer loop
      vertex -3.12121 -20 42.1897
      vertex -3.12121 5.42342e-31 42.1897
      vertex -3.63731 5.42342e-31 42.9
    endloop
  endfacet
  facet normal 0.809017 -3.10152e-16 0.587785
    outer loop
      vertex -3.63731 -20 42.9
      vertex -3.12121 -20 42.1897
      vertex -3.63731 5.42342e-31 42.9
    endloop
  endfacet
  facet normal 0.913546 -2.93161e-16 0.406736
    outer loop
      vertex -3.63731 -20 42.9
      vertex -3.63731 5.42342e-31 42.9
      vertex -3.99444 5.42342e-31 43.7021
    endloop
  endfacet
  facet normal 0.913546 -2.93161e-16 0.406736
    outer loop
      vertex -3.99444 -20 43.7021
      vertex -3.63731 -20 42.9
      vertex -3.99444 5.42342e-31 43.7021
    endloop
  endfacet
  facet normal 0.978147 -2.63358e-16 0.207912
    outer loop
      vertex -3.99444 -20 43.7021
      vertex -3.99444 5.42342e-31 43.7021
      vertex -4.17699 5.42342e-31 44.561
    endloop
  endfacet
  facet normal 0.978147 -2.63358e-16 0.207912
    outer loop
      vertex -4.17699 -20 44.561
      vertex -3.99444 -20 43.7021
      vertex -4.17699 5.42342e-31 44.561
    endloop
  endfacet
  facet normal 1 -2.22045e-16 -4.93038e-32
    outer loop
      vertex -4.17699 -20 44.561
      vertex -4.17699 5.42342e-31 44.561
      vertex -4.17699 5.42342e-31 45.439
    endloop
  endfacet
  facet normal 1 -2.22045e-16 -4.93038e-32
    outer loop
      vertex -4.17699 -20 45.439
      vertex -4.17699 -20 44.561
      vertex -4.17699 5.42342e-31 45.439
    endloop
  endfacet
  facet normal 0.978147 -1.71027e-16 -0.207912
    outer loop
      vertex -4.17699 5.42342e-31 45.439
      vertex -3.99444 5.42342e-31 46.2979
      vertex -3.99444 -20 46.2979
    endloop
  endfacet
  facet normal 0.978147 -1.71027e-16 -0.207912
    outer loop
      vertex -4.17699 -20 45.439
      vertex -4.17699 5.42342e-31 45.439
      vertex -3.99444 -20 46.2979
    endloop
  endfacet
  facet normal 0.913546 -1.12534e-16 -0.406736
    outer loop
      vertex -3.99444 5.42342e-31 46.2979
      vertex -3.68183 5.42342e-31 47
      vertex -3.68183 -20 47
    endloop
  endfacet
  facet normal 0.913546 -1.12534e-16 -0.406736
    outer loop
      vertex -3.99444 -20 46.2979
      vertex -3.99444 5.42342e-31 46.2979
      vertex -3.68183 -20 47
    endloop
  endfacet
  facet normal 0 0 1
    outer loop
      vertex -7 5.42342e-31 47
      vertex -7 -20 47
      vertex -3.68183 -20 47
    endloop
  endfacet
  facet normal 0 0 1
    outer loop
      vertex -3.68183 5.42342e-31 47
      vertex -7 5.42342e-31 47
      vertex -3.68183 -20 47
    endloop
  endfacet
  facet normal 1 -2.22045e-16 0
    outer loop
      vertex -4.3759 5.42342e-31 19.5401
      vertex -4.3759 5.42342e-31 20.4599
      vertex -4.3759 -22 20.4599
    endloop
  endfacet
  facet normal 1 -2.22045e-16 0
    outer loop
      vertex -4.3759 -22 19.5401
      vertex -4.3759 5.42342e-31 19.5401
      vertex -4.3759 -22 20.4599
    endloop
  endfacet
  facet normal 0.978148 -1.71027e-16 -0.207911
    outer loop
      vertex -4.3759 5.42342e-31 20.4599
      vertex -4.18465 5.42342e-31 21.3597
      vertex -4.18465 -22 21.3597
    endloop
  endfacet
  facet normal 0.978148 -1.71027e-16 -0.207911
    outer loop
      vertex -4.3759 -22 20.4599
      vertex -4.3759 5.42342e-31 20.4599
      vertex -4.18465 -22 21.3597
    endloop
  endfacet
  facet normal 0.913545 -1.12534e-16 -0.406737
    outer loop
      vertex -4.18465 5.42342e-31 21.3597
      vertex -3.81051 5.42342e-31 22.2
      vertex -3.81051 -22 22.2
    endloop
  endfacet
  facet normal 0.913545 -1.12534e-16 -0.406737
    outer loop
      vertex -4.18465 -22 21.3597
      vertex -4.18465 5.42342e-31 21.3597
      vertex -3.81051 -22 22.2
    endloop
  endfacet
  facet normal 0.809017 -4.91233e-17 -0.587785
    outer loop
      vertex -3.81051 5.42342e-31 22.2
      vertex -3.26984 5.42342e-31 22.9442
      vertex -3.26984 -22 22.9442
    endloop
  endfacet
  facet normal 0.809017 -4.91233e-17 -0.587785
    outer loop
      vertex -3.81051 -22 22.2
      vertex -3.81051 5.42342e-31 22.2
      vertex -3.26984 -22 22.9442
    endloop
  endfacet
  facet normal 0.669131 1.64345e-17 -0.743145
    outer loop
      vertex -2.58625 5.42342e-31 23.5597
      vertex -2.58625 -22 23.5597
      vertex -3.26984 5.42342e-31 22.9442
    endloop
  endfacet
  facet normal 0.669131 1.64345e-17 -0.743145
    outer loop
      vertex -3.26984 5.42342e-31 22.9442
      vertex -2.58625 -22 23.5597
      vertex -3.26984 -22 22.9442
    endloop
  endfacet
  facet normal 0.5 8.12741e-17 -0.866026
    outer loop
      vertex -1.78964 5.42342e-31 24.0196
      vertex -1.78964 -22 24.0196
      vertex -2.58625 5.42342e-31 23.5597
    endloop
  endfacet
  facet normal 0.5 8.12741e-17 -0.866026
    outer loop
      vertex -2.58625 5.42342e-31 23.5597
      vertex -1.78964 -22 24.0196
      vertex -2.58625 -22 23.5597
    endloop
  endfacet
  facet normal 0.309017 1.42562e-16 -0.951057
    outer loop
      vertex -0.914811 5.42342e-31 24.3038
      vertex -0.914811 -22 24.3038
      vertex -1.78964 5.42342e-31 24.0196
    endloop
  endfacet
  facet normal 0.309017 1.42562e-16 -0.951057
    outer loop
      vertex -1.78964 5.42342e-31 24.0196
      vertex -0.914811 -22 24.3038
      vertex -1.78964 -22 24.0196
    endloop
  endfacet
  facet normal 0.104529 1.97618e-16 -0.994522
    outer loop
      vertex 4.88498e-15 5.42342e-31 24.4
      vertex 0 -22 24.4
      vertex -0.914811 5.42342e-31 24.3038
    endloop
  endfacet
  facet normal 0.104529 1.97618e-16 -0.994522
    outer loop
      vertex -0.914811 5.42342e-31 24.3038
      vertex 0 -22 24.4
      vertex -0.914811 -22 24.3038
    endloop
  endfacet
  facet normal -0.104529 2.44038e-16 -0.994522
    outer loop
      vertex 0.914811 5.42342e-31 24.3038
      vertex 0.914811 -22 24.3038
      vertex 4.88498e-15 5.42342e-31 24.4
    endloop
  endfacet
  facet normal -0.104529 2.44038e-16 -0.994522
    outer loop
      vertex 4.88498e-15 5.42342e-31 24.4
      vertex 0.914811 -22 24.3038
      vertex 0 -22 24.4
    endloop
  endfacet
  facet normal -0.309017 2.79792e-16 -0.951057
    outer loop
      vertex 1.78964 5.42342e-31 24.0196
      vertex 1.78964 -22 24.0196
      vertex 0.914811 5.42342e-31 24.3038
    endloop
  endfacet
  facet normal -0.309017 2.79792e-16 -0.951057
    outer loop
      vertex 0.914811 5.42342e-31 24.3038
      vertex 1.78964 -22 24.0196
      vertex 0.914811 -22 24.3038
    endloop
  endfacet
  facet normal -0.5 3.03319e-16 -0.866026
    outer loop
      vertex 2.58626 5.42342e-31 23.5597
      vertex 2.58625 -22 23.5597
      vertex 1.78964 5.42342e-31 24.0196
    endloop
  endfacet
  facet normal -0.5 3.03319e-16 -0.866026
    outer loop
      vertex 1.78964 5.42342e-31 24.0196
      vertex 2.58625 -22 23.5597
      vertex 1.78964 -22 24.0196
    endloop
  endfacet
  facet normal -0.669131 3.13588e-16 -0.743145
    outer loop
      vertex 3.26984 5.42342e-31 22.9442
      vertex 3.26984 -22 22.9442
      vertex 2.58626 5.42342e-31 23.5597
    endloop
  endfacet
  facet normal -0.669131 3.13588e-16 -0.743145
    outer loop
      vertex 2.58626 5.42342e-31 23.5597
      vertex 3.26984 -22 22.9442
      vertex 2.58625 -22 23.5597
    endloop
  endfacet
  facet normal -0.809017 3.10152e-16 -0.587785
    outer loop
      vertex 3.81051 5.42342e-31 22.2
      vertex 3.81051 -22 22.2
      vertex 3.26984 5.42342e-31 22.9442
    endloop
  endfacet
  facet normal -0.809017 3.10152e-16 -0.587785
    outer loop
      vertex 3.26984 5.42342e-31 22.9442
      vertex 3.81051 -22 22.2
      vertex 3.26984 -22 22.9442
    endloop
  endfacet
  facet normal -0.913545 2.93162e-16 -0.406737
    outer loop
      vertex 4.18465 5.42342e-31 21.3597
      vertex 4.18465 -22 21.3597
      vertex 3.81051 5.42342e-31 22.2
    endloop
  endfacet
  facet normal -0.913545 2.93162e-16 -0.406737
    outer loop
      vertex 3.81051 5.42342e-31 22.2
      vertex 4.18465 -22 21.3597
      vertex 3.81051 -22 22.2
    endloop
  endfacet
  facet normal -0.978148 2.63358e-16 -0.207911
    outer loop
      vertex 4.3759 5.42342e-31 20.4599
      vertex 4.3759 -22 20.4599
      vertex 4.18465 5.42342e-31 21.3597
    endloop
  endfacet
  facet normal -0.978148 2.63358e-16 -0.207911
    outer loop
      vertex 4.18465 5.42342e-31 21.3597
      vertex 4.3759 -22 20.4599
      vertex 4.18465 -22 21.3597
    endloop
  endfacet
  facet normal -1 2.22045e-16 0
    outer loop
      vertex 4.3759 5.42342e-31 20.4599
      vertex 4.3759 5.42342e-31 19.5401
      vertex 4.3759 -22 20.4599
    endloop
  endfacet
  facet normal -1 2.22045e-16 0
    outer loop
      vertex 4.3759 -22 20.4599
      vertex 4.3759 5.42342e-31 19.5401
      vertex 4.3759 -22 19.5401
    endloop
  endfacet
  facet normal -0.978148 1.71027e-16 0.207911
    outer loop
      vertex 4.3759 5.42342e-31 19.5401
      vertex 4.18465 5.42342e-31 18.6403
      vertex 4.3759 -22 19.5401
    endloop
  endfacet
  facet normal -0.978148 1.71027e-16 0.207911
    outer loop
      vertex 4.3759 -22 19.5401
      vertex 4.18465 5.42342e-31 18.6403
      vertex 4.18465 -22 18.6403
    endloop
  endfacet
  facet normal -0.913545 1.12534e-16 0.406737
    outer loop
      vertex 4.18465 5.42342e-31 18.6403
      vertex 3.81051 5.42342e-31 17.8
      vertex 4.18465 -22 18.6403
    endloop
  endfacet
  facet normal -0.913545 1.12534e-16 0.406737
    outer loop
      vertex 4.18465 -22 18.6403
      vertex 3.81051 5.42342e-31 17.8
      vertex 3.81051 -22 17.8
    endloop
  endfacet
  facet normal -0.809017 4.91233e-17 0.587785
    outer loop
      vertex 3.81051 5.42342e-31 17.8
      vertex 3.26984 5.42342e-31 17.0558
      vertex 3.81051 -22 17.8
    endloop
  endfacet
  facet normal -0.809017 4.91233e-17 0.587785
    outer loop
      vertex 3.81051 -22 17.8
      vertex 3.26984 5.42342e-31 17.0558
      vertex 3.26984 -22 17.0558
    endloop
  endfacet
  facet normal -0.669131 -1.64345e-17 0.743145
    outer loop
      vertex 3.26984 -22 17.0558
      vertex 3.26984 5.42342e-31 17.0558
      vertex 2.58626 5.42342e-31 16.4403
    endloop
  endfacet
  facet normal -0.669131 -1.64345e-17 0.743145
    outer loop
      vertex 2.58625 -22 16.4403
      vertex 3.26984 -22 17.0558
      vertex 2.58626 5.42342e-31 16.4403
    endloop
  endfacet
  facet normal -0.5 -8.12741e-17 0.866026
    outer loop
      vertex 2.58625 -22 16.4403
      vertex 2.58626 5.42342e-31 16.4403
      vertex 1.78964 5.42342e-31 15.9804
    endloop
  endfacet
  facet normal -0.5 -8.12741e-17 0.866026
    outer loop
      vertex 1.78964 -22 15.9804
      vertex 2.58625 -22 16.4403
      vertex 1.78964 5.42342e-31 15.9804
    endloop
  endfacet
  facet normal -0.309017 -1.42562e-16 0.951057
    outer loop
      vertex 1.78964 -22 15.9804
      vertex 1.78964 5.42342e-31 15.9804
      vertex 0.914811 5.42342e-31 15.6962
    endloop
  endfacet
  facet normal -0.309017 -1.42562e-16 0.951057
    outer loop
      vertex 0.914811 -22 15.6962
      vertex 1.78964 -22 15.9804
      vertex 0.914811 5.42342e-31 15.6962
    endloop
  endfacet
  facet normal -0.104529 -1.97618e-16 0.994522
    outer loop
      vertex 0.914811 -22 15.6962
      vertex 0.914811 5.42342e-31 15.6962
      vertex 4.88498e-15 5.42342e-31 15.6
    endloop
  endfacet
  facet normal -0.104529 -1.97618e-16 0.994522
    outer loop
      vertex 0 -22 15.6
      vertex 0.914811 -22 15.6962
      vertex 4.88498e-15 5.42342e-31 15.6
    endloop
  endfacet
  facet normal 0.104529 -2.44038e-16 0.994522
    outer loop
      vertex 0 -22 15.6
      vertex 4.88498e-15 5.42342e-31 15.6
      vertex -0.914811 5.42342e-31 15.6962
    endloop
  endfacet
  facet normal 0.104529 -2.44038e-16 0.994522
    outer loop
      vertex -0.914811 -22 15.6962
      vertex 0 -22 15.6
      vertex -0.914811 5.42342e-31 15.6962
    endloop
  endfacet
  facet normal 0.309017 -2.79792e-16 0.951057
    outer loop
      vertex -0.914811 -22 15.6962
      vertex -0.914811 5.42342e-31 15.6962
      vertex -1.78964 5.42342e-31 15.9804
    endloop
  endfacet
  facet normal 0.309017 -2.79792e-16 0.951057
    outer loop
      vertex -1.78964 -22 15.9804
      vertex -0.914811 -22 15.6962
      vertex -1.78964 5.42342e-31 15.9804
    endloop
  endfacet
  facet normal 0.5 -3.03319e-16 0.866026
    outer loop
      vertex -1.78964 -22 15.9804
      vertex -1.78964 5.42342e-31 15.9804
      vertex -2.58625 5.42342e-31 16.4403
    endloop
  endfacet
  facet normal 0.5 -3.03319e-16 0.866026
    outer loop
      vertex -2.58625 -22 16.4403
      vertex -1.78964 -22 15.9804
      vertex -2.58625 5.42342e-31 16.4403
    endloop
  endfacet
  facet normal 0.669131 -3.13588e-16 0.743145
    outer loop
      vertex -2.58625 -22 16.4403
      vertex -2.58625 5.42342e-31 16.4403
      vertex -3.26984 5.42342e-31 17.0558
    endloop
  endfacet
  facet normal 0.669131 -3.13588e-16 0.743145
    outer loop
      vertex -3.26984 -22 17.0558
      vertex -2.58625 -22 16.4403
      vertex -3.26984 5.42342e-31 17.0558
    endloop
  endfacet
  facet normal 0.809017 -3.10152e-16 0.587785
    outer loop
      vertex -3.26984 -22 17.0558
      vertex -3.26984 5.42342e-31 17.0558
      vertex -3.81051 5.42342e-31 17.8
    endloop
  endfacet
  facet normal 0.809017 -3.10152e-16 0.587785
    outer loop
      vertex -3.81051 -22 17.8
      vertex -3.26984 -22 17.0558
      vertex -3.81051 5.42342e-31 17.8
    endloop
  endfacet
  facet normal 0.913545 -2.93162e-16 0.406737
    outer loop
      vertex -3.81051 -22 17.8
      vertex -3.81051 5.42342e-31 17.8
      vertex -4.18465 5.42342e-31 18.6403
    endloop
  endfacet
  facet normal 0.913545 -2.93162e-16 0.406737
    outer loop
      vertex -4.18465 -22 18.6403
      vertex -3.81051 -22 17.8
      vertex -4.18465 5.42342e-31 18.6403
    endloop
  endfacet
  facet normal 0.978148 -2.63358e-16 0.207911
    outer loop
      vertex -4.18465 -22 18.6403
      vertex -4.18465 5.42342e-31 18.6403
      vertex -4.3759 5.42342e-31 19.5401
    endloop
  endfacet
  facet normal 0.978148 -2.63358e-16 0.207911
    outer loop
      vertex -4.3759 -22 19.5401
      vertex -4.18465 -22 18.6403
      vertex -4.3759 5.42342e-31 19.5401
    endloop
  endfacet
  facet normal 0 0 -1
    outer loop
      vertex 9 -13 41
      vertex 1.2063 -13 41
      vertex 9 -9.5 41
    endloop
  endfacet
  facet normal 0 0 -1
    outer loop
      vertex 9 -9.5 41
      vertex 1.2063 -13 41
      vertex 1.2063 -9.5 41
    endloop
  endfacet
  facet normal -0.104528 -1.97618e-16 0.994522
    outer loop
      vertex 0.873229 -20 40.8918
      vertex 0.873229 -13 40.8918
      vertex 1.55431e-15 -13 40.8
    endloop
  endfacet
  facet normal -0.104528 -1.97618e-16 0.994522
    outer loop
      vertex 0 -20 40.8
      vertex 0.873229 -20 40.8918
      vertex 1.55431e-15 -13 40.8
    endloop
  endfacet
  facet normal 0.104528 -2.44038e-16 0.994522
    outer loop
      vertex 0 -20 40.8
      vertex 1.55431e-15 -13 40.8
      vertex -0.873229 -13 40.8918
    endloop
  endfacet
  facet normal 0.104528 -2.44038e-16 0.994522
    outer loop
      vertex -0.873229 -20 40.8918
      vertex 0 -20 40.8
      vertex -0.873229 -13 40.8918
    endloop
  endfacet
  facet normal 2.22045e-16 1 2.22045e-16
    outer loop
      vertex -3.68183 -20 47
      vertex 3.68183 -20 47
      vertex -3.99444 -20 46.2979
    endloop
  endfacet
  facet normal 2.22045e-16 1 2.22045e-16
    outer loop
      vertex -3.99444 -20 46.2979
      vertex 3.68183 -20 47
      vertex 3.99444 -20 46.2979
    endloop
  endfacet
  facet normal 2.22045e-16 1 2.22045e-16
    outer loop
      vertex -3.99444 -20 46.2979
      vertex 3.99444 -20 46.2979
      vertex 4.17699 -20 45.439
    endloop
  endfacet
  facet normal 2.22045e-16 1 2.22045e-16
    outer loop
      vertex -3.99444 -20 46.2979
      vertex 4.17699 -20 45.439
      vertex 4.17699 -20 44.561
    endloop
  endfacet
  facet normal 2.22045e-16 1 2.22045e-16
    outer loop
      vertex -3.99444 -20 46.2979
      vertex 4.17699 -20 44.561
      vertex 3.99444 -20 43.7021
    endloop
  endfacet
  facet normal 2.22045e-16 1 2.22045e-16
    outer loop
      vertex -3.99444 -20 46.2979
      vertex 3.99444 -20 43.7021
      vertex 3.63731 -20 42.9
    endloop
  endfacet
  facet normal 2.22045e-16 1 2.22045e-16
    outer loop
      vertex -3.99444 -20 46.2979
      vertex 3.63731 -20 42.9
      vertex 3.12121 -20 42.1897
    endloop
  endfacet
  facet normal 2.22045e-16 1 2.22045e-16
    outer loop
      vertex -3.99444 -20 46.2979
      vertex 3.12121 -20 42.1897
      vertex 2.4687 -20 41.6021
    endloop
  endfacet
  facet normal 2.22045e-16 1 2.22045e-16
    outer loop
      vertex -3.99444 -20 46.2979
      vertex 2.4687 -20 41.6021
      vertex 1.70829 -20 41.1631
    endloop
  endfacet
  facet normal 2.22045e-16 1 2.22045e-16
    outer loop
      vertex -3.99444 -20 46.2979
      vertex 1.70829 -20 41.1631
      vertex 0.873229 -20 40.8918
    endloop
  endfacet
  facet normal 2.22045e-16 1 2.22045e-16
    outer loop
      vertex -3.99444 -20 46.2979
      vertex 0.873229 -20 40.8918
      vertex 0 -20 40.8
    endloop
  endfacet
  facet normal 2.22045e-16 1 2.22045e-16
    outer loop
      vertex -3.99444 -20 46.2979
      vertex 0 -20 40.8
      vertex -0.873229 -20 40.8918
    endloop
  endfacet
  facet normal 2.22045e-16 1 2.22045e-16
    outer loop
      vertex -3.99444 -20 46.2979
      vertex -0.873229 -20 40.8918
      vertex -1.70829 -20 41.1631
    endloop
  endfacet
  facet normal 2.22045e-16 1 2.22045e-16
    outer loop
      vertex -3.99444 -20 46.2979
      vertex -1.70829 -20 41.1631
      vertex -2.4687 -20 41.6021
    endloop
  endfacet
  facet normal 2.22045e-16 1 2.22045e-16
    outer loop
      vertex -3.99444 -20 46.2979
      vertex -2.4687 -20 41.6021
      vertex -3.12121 -20 42.1897
    endloop
  endfacet
  facet normal 2.22045e-16 1 2.22045e-16
    outer loop
      vertex -3.99444 -20 46.2979
      vertex -3.12121 -20 42.1897
      vertex -3.63731 -20 42.9
    endloop
  endfacet
  facet normal 2.22045e-16 1 2.22045e-16
    outer loop
      vertex -3.99444 -20 46.2979
      vertex -3.63731 -20 42.9
      vertex -3.99444 -20 43.7021
    endloop
  endfacet
  facet normal 2.22045e-16 1 2.22045e-16
    outer loop
      vertex -3.99444 -20 46.2979
      vertex -3.99444 -20 43.7021
      vertex -4.17699 -20 44.561
    endloop
  endfacet
  facet normal 2.22045e-16 1 2.22045e-16
    outer loop
      vertex -3.99444 -20 46.2979
      vertex -4.17699 -20 44.561
      vertex -4.17699 -20 45.439
    endloop
  endfacet
endsolid OpenSCAD_Model
